<svg xmlns="http://www.w3.org/2000/svg" xmlns:xlink="http://www.w3.org/1999/xlink" width="1080" zoomAndPan="magnify" viewBox="0 0 810 809.999993" height="1080" preserveAspectRatio="xMidYMid meet" version="1.0"><defs><clipPath id="9c3bda2cca"><path d="M 72.855469 72.855469 L 751.605469 72.855469 L 751.605469 751.605469 L 72.855469 751.605469 Z M 72.855469 72.855469 " clip-rule="nonzero"/></clipPath><clipPath id="7baa296227"><path d="M 751.605469 412.230469 C 751.605469 417.785156 751.46875 423.335938 751.199219 428.882812 C 750.925781 434.429688 750.515625 439.96875 749.972656 445.496094 C 749.425781 451.023438 748.75 456.535156 747.933594 462.027344 C 747.117188 467.523438 746.167969 472.992188 745.085938 478.441406 C 744 483.886719 742.785156 489.304688 741.4375 494.691406 C 740.085938 500.082031 738.605469 505.433594 736.992188 510.746094 C 735.378906 516.0625 733.640625 521.332031 731.769531 526.5625 C 729.898438 531.792969 727.898438 536.972656 725.773438 542.105469 C 723.648438 547.234375 721.398438 552.3125 719.023438 557.332031 C 716.648438 562.355469 714.152344 567.3125 711.535156 572.210938 C 708.914062 577.109375 706.179688 581.941406 703.324219 586.703125 C 700.46875 591.46875 697.496094 596.160156 694.410156 600.777344 C 691.324219 605.394531 688.128906 609.9375 684.820312 614.398438 C 681.511719 618.859375 678.09375 623.234375 674.570312 627.527344 C 671.046875 631.820312 667.421875 636.027344 663.691406 640.140625 C 659.960938 644.257812 656.132812 648.277344 652.207031 652.207031 C 648.277344 656.132812 644.257812 659.960938 640.140625 663.691406 C 636.027344 667.421875 631.820312 671.046875 627.527344 674.570312 C 623.234375 678.09375 618.859375 681.511719 614.398438 684.820312 C 609.9375 688.128906 605.394531 691.324219 600.777344 694.410156 C 596.160156 697.496094 591.46875 700.46875 586.703125 703.324219 C 581.941406 706.179688 577.109375 708.914062 572.210938 711.535156 C 567.3125 714.152344 562.355469 716.648438 557.332031 719.023438 C 552.3125 721.398438 547.234375 723.648438 542.105469 725.773438 C 536.972656 727.898438 531.792969 729.898438 526.5625 731.769531 C 521.332031 733.640625 516.0625 735.378906 510.746094 736.992188 C 505.433594 738.605469 500.082031 740.085938 494.691406 741.4375 C 489.304688 742.785156 483.886719 744 478.441406 745.085938 C 472.992188 746.167969 467.523438 747.117188 462.027344 747.933594 C 456.535156 748.746094 451.023438 749.429688 445.496094 749.972656 C 439.96875 750.515625 434.429688 750.925781 428.882812 751.199219 C 423.335938 751.46875 417.785156 751.605469 412.230469 751.605469 C 406.675781 751.605469 401.125 751.46875 395.578125 751.199219 C 390.03125 750.925781 384.496094 750.515625 378.964844 749.972656 C 373.4375 749.429688 367.929688 748.75 362.433594 747.933594 C 356.941406 747.117188 351.46875 746.167969 346.023438 745.085938 C 340.574219 744 335.15625 742.785156 329.769531 741.4375 C 324.382812 740.085938 319.03125 738.605469 313.714844 736.992188 C 308.402344 735.378906 303.128906 733.640625 297.898438 731.769531 C 292.667969 729.898438 287.488281 727.898438 282.359375 725.773438 C 277.226562 723.648438 272.152344 721.398438 267.128906 719.023438 C 262.109375 716.648438 257.148438 714.152344 252.25 711.535156 C 247.351562 708.914062 242.523438 706.179688 237.757812 703.324219 C 232.992188 700.46875 228.304688 697.496094 223.683594 694.410156 C 219.066406 691.324219 214.527344 688.128906 210.066406 684.820312 C 205.605469 681.511719 201.226562 678.09375 196.933594 674.570312 C 192.640625 671.046875 188.4375 667.421875 184.320312 663.691406 C 180.207031 659.960938 176.183594 656.132812 172.257812 652.207031 C 168.328125 648.277344 164.5 644.257812 160.769531 640.140625 C 157.042969 636.027344 153.414062 631.820312 149.890625 627.527344 C 146.367188 623.234375 142.953125 618.859375 139.644531 614.398438 C 136.335938 609.9375 133.136719 605.394531 130.050781 600.777344 C 126.964844 596.160156 123.996094 591.46875 121.140625 586.703125 C 118.285156 581.941406 115.546875 577.109375 112.929688 572.210938 C 110.3125 567.3125 107.816406 562.355469 105.441406 557.332031 C 103.066406 552.3125 100.816406 547.234375 98.691406 542.105469 C 96.5625 536.972656 94.566406 531.792969 92.695312 526.5625 C 90.824219 521.332031 89.082031 516.0625 87.46875 510.746094 C 85.859375 505.433594 84.375 500.082031 83.027344 494.691406 C 81.675781 489.304688 80.460938 483.886719 79.378906 478.441406 C 78.292969 472.992188 77.34375 467.523438 76.53125 462.027344 C 75.714844 456.535156 75.035156 451.023438 74.492188 445.496094 C 73.945312 439.96875 73.539062 434.429688 73.265625 428.882812 C 72.992188 423.335938 72.855469 417.785156 72.855469 412.230469 C 72.855469 406.675781 72.992188 401.125 73.265625 395.578125 C 73.539062 390.03125 73.945312 384.496094 74.492188 378.96875 C 75.035156 373.4375 75.714844 367.929688 76.53125 362.433594 C 77.34375 356.941406 78.292969 351.46875 79.378906 346.023438 C 80.460938 340.574219 81.675781 335.15625 83.027344 329.769531 C 84.375 324.382812 85.859375 319.03125 87.46875 313.714844 C 89.082031 308.402344 90.824219 303.128906 92.695312 297.898438 C 94.566406 292.667969 96.5625 287.488281 98.691406 282.359375 C 100.816406 277.226562 103.066406 272.152344 105.441406 267.128906 C 107.816406 262.109375 110.3125 257.148438 112.929688 252.25 C 115.546875 247.351562 118.285156 242.523438 121.140625 237.757812 C 123.996094 232.992188 126.964844 228.304688 130.050781 223.683594 C 133.136719 219.066406 136.335938 214.527344 139.644531 210.066406 C 142.953125 205.605469 146.367188 201.226562 149.890625 196.933594 C 153.414062 192.640625 157.042969 188.4375 160.769531 184.320312 C 164.5 180.207031 168.328125 176.183594 172.257812 172.257812 C 176.183594 168.328125 180.207031 164.5 184.320312 160.769531 C 188.4375 157.042969 192.640625 153.414062 196.933594 149.890625 C 201.226562 146.367188 205.605469 142.953125 210.066406 139.644531 C 214.527344 136.335938 219.066406 133.136719 223.683594 130.050781 C 228.304688 126.964844 232.992188 123.996094 237.757812 121.140625 C 242.523438 118.285156 247.351562 115.546875 252.25 112.929688 C 257.148438 110.3125 262.109375 107.816406 267.128906 105.441406 C 272.152344 103.066406 277.226562 100.816406 282.359375 98.691406 C 287.488281 96.5625 292.667969 94.566406 297.898438 92.695312 C 303.128906 90.824219 308.402344 89.082031 313.714844 87.46875 C 319.03125 85.859375 324.382812 84.375 329.769531 83.027344 C 335.15625 81.675781 340.574219 80.460938 346.023438 79.378906 C 351.46875 78.292969 356.941406 77.34375 362.433594 76.53125 C 367.929688 75.714844 373.4375 75.035156 378.964844 74.492188 C 384.496094 73.945312 390.03125 73.539062 395.578125 73.265625 C 401.125 72.992188 406.675781 72.855469 412.230469 72.855469 C 417.785156 72.855469 423.335938 72.992188 428.882812 73.265625 C 434.429688 73.539062 439.96875 73.945312 445.496094 74.492188 C 451.023438 75.035156 456.535156 75.714844 462.027344 76.53125 C 467.523438 77.34375 472.992188 78.292969 478.441406 79.378906 C 483.886719 80.460938 489.304688 81.675781 494.691406 83.027344 C 500.082031 84.375 505.433594 85.859375 510.746094 87.46875 C 516.0625 89.082031 521.332031 90.824219 526.5625 92.695312 C 531.792969 94.566406 536.972656 96.5625 542.105469 98.691406 C 547.234375 100.816406 552.3125 103.066406 557.332031 105.441406 C 562.355469 107.816406 567.3125 110.3125 572.210938 112.929688 C 577.109375 115.546875 581.941406 118.285156 586.703125 121.140625 C 591.46875 123.996094 596.160156 126.964844 600.777344 130.050781 C 605.394531 133.136719 609.9375 136.335938 614.398438 139.644531 C 618.859375 142.953125 623.234375 146.367188 627.527344 149.890625 C 631.820312 153.414062 636.027344 157.042969 640.140625 160.769531 C 644.257812 164.5 648.277344 168.328125 652.207031 172.257812 C 656.132812 176.183594 659.960938 180.207031 663.691406 184.320312 C 667.421875 188.4375 671.046875 192.640625 674.570312 196.933594 C 678.09375 201.226562 681.511719 205.605469 684.820312 210.066406 C 688.128906 214.527344 691.324219 219.066406 694.410156 223.683594 C 697.496094 228.304688 700.46875 232.992188 703.324219 237.757812 C 706.179688 242.523438 708.914062 247.351562 711.535156 252.25 C 714.152344 257.148438 716.648438 262.109375 719.023438 267.128906 C 721.398438 272.152344 723.648438 277.226562 725.773438 282.359375 C 727.898438 287.488281 729.898438 292.667969 731.769531 297.898438 C 733.640625 303.128906 735.378906 308.402344 736.992188 313.714844 C 738.605469 319.03125 740.085938 324.382812 741.4375 329.769531 C 742.785156 335.15625 744 340.574219 745.085938 346.023438 C 746.167969 351.46875 747.117188 356.941406 747.933594 362.433594 C 748.746094 367.929688 749.425781 373.4375 749.972656 378.96875 C 750.515625 384.496094 750.925781 390.03125 751.199219 395.578125 C 751.46875 401.125 751.605469 406.675781 751.605469 412.230469 Z M 751.605469 412.230469 " clip-rule="nonzero"/></clipPath><linearGradient x1="-0.0000000105244" gradientTransform="matrix(678.749994, 0, 0, 678.749994, 72.856372, 72.856399)" y1="-0.0000000104212" x2="1.004902" gradientUnits="userSpaceOnUse" y2="0.995049" id="7c9c642ca7"><stop stop-opacity="1" stop-color="rgb(0%, 76.899719%, 79.998779%)" offset="0"/><stop stop-opacity="1" stop-color="rgb(0.186157%, 76.66626%, 80.041504%)" offset="0.00390625"/><stop stop-opacity="1" stop-color="rgb(0.37384%, 76.4328%, 80.084229%)" offset="0.0078125"/><stop stop-opacity="1" stop-color="rgb(0.561523%, 76.199341%, 80.126953%)" offset="0.0117188"/><stop stop-opacity="1" stop-color="rgb(0.749207%, 75.965881%, 80.169678%)" offset="0.015625"/><stop stop-opacity="1" stop-color="rgb(0.93689%, 75.732422%, 80.210876%)" offset="0.0195312"/><stop stop-opacity="1" stop-color="rgb(1.124573%, 75.500488%, 80.253601%)" offset="0.0234375"/><stop stop-opacity="1" stop-color="rgb(1.312256%, 75.267029%, 80.296326%)" offset="0.0273438"/><stop stop-opacity="1" stop-color="rgb(1.499939%, 75.033569%, 80.33905%)" offset="0.03125"/><stop stop-opacity="1" stop-color="rgb(1.687622%, 74.80011%, 80.381775%)" offset="0.0351562"/><stop stop-opacity="1" stop-color="rgb(1.875305%, 74.568176%, 80.4245%)" offset="0.0390625"/><stop stop-opacity="1" stop-color="rgb(2.062988%, 74.334717%, 80.465698%)" offset="0.0429688"/><stop stop-opacity="1" stop-color="rgb(2.250671%, 74.101257%, 80.508423%)" offset="0.046875"/><stop stop-opacity="1" stop-color="rgb(2.438354%, 73.867798%, 80.551147%)" offset="0.0507812"/><stop stop-opacity="1" stop-color="rgb(2.626038%, 73.634338%, 80.593872%)" offset="0.0546875"/><stop stop-opacity="1" stop-color="rgb(2.813721%, 73.400879%, 80.636597%)" offset="0.0585938"/><stop stop-opacity="1" stop-color="rgb(3.001404%, 73.168945%, 80.679321%)" offset="0.0625"/><stop stop-opacity="1" stop-color="rgb(3.189087%, 72.935486%, 80.72052%)" offset="0.0664062"/><stop stop-opacity="1" stop-color="rgb(3.37677%, 72.702026%, 80.763245%)" offset="0.0703125"/><stop stop-opacity="1" stop-color="rgb(3.562927%, 72.468567%, 80.805969%)" offset="0.0742188"/><stop stop-opacity="1" stop-color="rgb(3.75061%, 72.236633%, 80.848694%)" offset="0.078125"/><stop stop-opacity="1" stop-color="rgb(3.938293%, 72.003174%, 80.891418%)" offset="0.0820312"/><stop stop-opacity="1" stop-color="rgb(4.125977%, 71.769714%, 80.934143%)" offset="0.0859375"/><stop stop-opacity="1" stop-color="rgb(4.31366%, 71.536255%, 80.975342%)" offset="0.0898437"/><stop stop-opacity="1" stop-color="rgb(4.501343%, 71.302795%, 81.018066%)" offset="0.09375"/><stop stop-opacity="1" stop-color="rgb(4.689026%, 71.069336%, 81.060791%)" offset="0.0976562"/><stop stop-opacity="1" stop-color="rgb(4.876709%, 70.837402%, 81.103516%)" offset="0.101562"/><stop stop-opacity="1" stop-color="rgb(5.064392%, 70.603943%, 81.144714%)" offset="0.105469"/><stop stop-opacity="1" stop-color="rgb(5.252075%, 70.370483%, 81.187439%)" offset="0.109375"/><stop stop-opacity="1" stop-color="rgb(5.439758%, 70.137024%, 81.230164%)" offset="0.113281"/><stop stop-opacity="1" stop-color="rgb(5.627441%, 69.90509%, 81.272888%)" offset="0.117187"/><stop stop-opacity="1" stop-color="rgb(5.815125%, 69.671631%, 81.315613%)" offset="0.121094"/><stop stop-opacity="1" stop-color="rgb(6.002808%, 69.438171%, 81.358337%)" offset="0.125"/><stop stop-opacity="1" stop-color="rgb(6.190491%, 69.204712%, 81.399536%)" offset="0.128906"/><stop stop-opacity="1" stop-color="rgb(6.378174%, 68.971252%, 81.442261%)" offset="0.132813"/><stop stop-opacity="1" stop-color="rgb(6.565857%, 68.737793%, 81.484985%)" offset="0.136719"/><stop stop-opacity="1" stop-color="rgb(6.75354%, 68.505859%, 81.52771%)" offset="0.140625"/><stop stop-opacity="1" stop-color="rgb(6.941223%, 68.2724%, 81.570435%)" offset="0.144531"/><stop stop-opacity="1" stop-color="rgb(7.128906%, 68.03894%, 81.613159%)" offset="0.148438"/><stop stop-opacity="1" stop-color="rgb(7.315063%, 67.805481%, 81.654358%)" offset="0.152344"/><stop stop-opacity="1" stop-color="rgb(7.502747%, 67.573547%, 81.697083%)" offset="0.15625"/><stop stop-opacity="1" stop-color="rgb(7.69043%, 67.340088%, 81.739807%)" offset="0.160156"/><stop stop-opacity="1" stop-color="rgb(7.878113%, 67.106628%, 81.782532%)" offset="0.164062"/><stop stop-opacity="1" stop-color="rgb(8.065796%, 66.873169%, 81.825256%)" offset="0.167969"/><stop stop-opacity="1" stop-color="rgb(8.253479%, 66.641235%, 81.867981%)" offset="0.171875"/><stop stop-opacity="1" stop-color="rgb(8.441162%, 66.407776%, 81.90918%)" offset="0.175781"/><stop stop-opacity="1" stop-color="rgb(8.628845%, 66.174316%, 81.951904%)" offset="0.179688"/><stop stop-opacity="1" stop-color="rgb(8.816528%, 65.940857%, 81.994629%)" offset="0.183594"/><stop stop-opacity="1" stop-color="rgb(9.004211%, 65.707397%, 82.037354%)" offset="0.1875"/><stop stop-opacity="1" stop-color="rgb(9.191895%, 65.473938%, 82.080078%)" offset="0.191406"/><stop stop-opacity="1" stop-color="rgb(9.379578%, 65.242004%, 82.122803%)" offset="0.195313"/><stop stop-opacity="1" stop-color="rgb(9.567261%, 65.008545%, 82.164001%)" offset="0.199219"/><stop stop-opacity="1" stop-color="rgb(9.754944%, 64.775085%, 82.206726%)" offset="0.203125"/><stop stop-opacity="1" stop-color="rgb(9.942627%, 64.541626%, 82.249451%)" offset="0.207031"/><stop stop-opacity="1" stop-color="rgb(10.13031%, 64.309692%, 82.292175%)" offset="0.210938"/><stop stop-opacity="1" stop-color="rgb(10.317993%, 64.076233%, 82.3349%)" offset="0.214844"/><stop stop-opacity="1" stop-color="rgb(10.505676%, 63.842773%, 82.377625%)" offset="0.21875"/><stop stop-opacity="1" stop-color="rgb(10.691833%, 63.609314%, 82.418823%)" offset="0.222656"/><stop stop-opacity="1" stop-color="rgb(10.879517%, 63.375854%, 82.461548%)" offset="0.226562"/><stop stop-opacity="1" stop-color="rgb(11.0672%, 63.142395%, 82.504272%)" offset="0.230469"/><stop stop-opacity="1" stop-color="rgb(11.254883%, 62.910461%, 82.546997%)" offset="0.234375"/><stop stop-opacity="1" stop-color="rgb(11.442566%, 62.677002%, 82.589722%)" offset="0.238281"/><stop stop-opacity="1" stop-color="rgb(11.630249%, 62.443542%, 82.632446%)" offset="0.242188"/><stop stop-opacity="1" stop-color="rgb(11.817932%, 62.210083%, 82.673645%)" offset="0.246094"/><stop stop-opacity="1" stop-color="rgb(12.005615%, 61.978149%, 82.71637%)" offset="0.25"/><stop stop-opacity="1" stop-color="rgb(12.193298%, 61.74469%, 82.759094%)" offset="0.253906"/><stop stop-opacity="1" stop-color="rgb(12.380981%, 61.51123%, 82.801819%)" offset="0.257813"/><stop stop-opacity="1" stop-color="rgb(12.568665%, 61.277771%, 82.844543%)" offset="0.261719"/><stop stop-opacity="1" stop-color="rgb(12.756348%, 61.044312%, 82.887268%)" offset="0.265625"/><stop stop-opacity="1" stop-color="rgb(12.944031%, 60.810852%, 82.928467%)" offset="0.269531"/><stop stop-opacity="1" stop-color="rgb(13.131714%, 60.578918%, 82.971191%)" offset="0.273438"/><stop stop-opacity="1" stop-color="rgb(13.319397%, 60.345459%, 83.013916%)" offset="0.277344"/><stop stop-opacity="1" stop-color="rgb(13.50708%, 60.112%, 83.056641%)" offset="0.28125"/><stop stop-opacity="1" stop-color="rgb(13.694763%, 59.87854%, 83.099365%)" offset="0.285156"/><stop stop-opacity="1" stop-color="rgb(13.882446%, 59.646606%, 83.14209%)" offset="0.289062"/><stop stop-opacity="1" stop-color="rgb(14.070129%, 59.413147%, 83.183289%)" offset="0.292969"/><stop stop-opacity="1" stop-color="rgb(14.257812%, 59.179688%, 83.226013%)" offset="0.296875"/><stop stop-opacity="1" stop-color="rgb(14.44397%, 58.946228%, 83.268738%)" offset="0.300781"/><stop stop-opacity="1" stop-color="rgb(14.631653%, 58.712769%, 83.311462%)" offset="0.304688"/><stop stop-opacity="1" stop-color="rgb(14.819336%, 58.479309%, 83.354187%)" offset="0.308594"/><stop stop-opacity="1" stop-color="rgb(15.007019%, 58.247375%, 83.396912%)" offset="0.3125"/><stop stop-opacity="1" stop-color="rgb(15.194702%, 58.013916%, 83.43811%)" offset="0.316406"/><stop stop-opacity="1" stop-color="rgb(15.382385%, 57.780457%, 83.480835%)" offset="0.320313"/><stop stop-opacity="1" stop-color="rgb(15.570068%, 57.546997%, 83.52356%)" offset="0.324219"/><stop stop-opacity="1" stop-color="rgb(15.757751%, 57.315063%, 83.566284%)" offset="0.328125"/><stop stop-opacity="1" stop-color="rgb(15.945435%, 57.081604%, 83.607483%)" offset="0.332031"/><stop stop-opacity="1" stop-color="rgb(16.133118%, 56.848145%, 83.650208%)" offset="0.335938"/><stop stop-opacity="1" stop-color="rgb(16.320801%, 56.614685%, 83.692932%)" offset="0.339844"/><stop stop-opacity="1" stop-color="rgb(16.508484%, 56.381226%, 83.735657%)" offset="0.34375"/><stop stop-opacity="1" stop-color="rgb(16.696167%, 56.147766%, 83.778381%)" offset="0.347656"/><stop stop-opacity="1" stop-color="rgb(16.88385%, 55.915833%, 83.821106%)" offset="0.351563"/><stop stop-opacity="1" stop-color="rgb(17.071533%, 55.682373%, 83.862305%)" offset="0.355469"/><stop stop-opacity="1" stop-color="rgb(17.259216%, 55.448914%, 83.905029%)" offset="0.359375"/><stop stop-opacity="1" stop-color="rgb(17.446899%, 55.215454%, 83.947754%)" offset="0.363281"/><stop stop-opacity="1" stop-color="rgb(17.634583%, 54.983521%, 83.990479%)" offset="0.367188"/><stop stop-opacity="1" stop-color="rgb(17.822266%, 54.750061%, 84.033203%)" offset="0.371094"/><stop stop-opacity="1" stop-color="rgb(18.009949%, 54.516602%, 84.075928%)" offset="0.375"/><stop stop-opacity="1" stop-color="rgb(18.196106%, 54.283142%, 84.117126%)" offset="0.378906"/><stop stop-opacity="1" stop-color="rgb(18.383789%, 54.049683%, 84.159851%)" offset="0.382813"/><stop stop-opacity="1" stop-color="rgb(18.571472%, 53.816223%, 84.202576%)" offset="0.386719"/><stop stop-opacity="1" stop-color="rgb(18.759155%, 53.58429%, 84.2453%)" offset="0.390625"/><stop stop-opacity="1" stop-color="rgb(18.946838%, 53.35083%, 84.288025%)" offset="0.394531"/><stop stop-opacity="1" stop-color="rgb(19.134521%, 53.117371%, 84.33075%)" offset="0.398438"/><stop stop-opacity="1" stop-color="rgb(19.322205%, 52.883911%, 84.371948%)" offset="0.402344"/><stop stop-opacity="1" stop-color="rgb(19.509888%, 52.651978%, 84.414673%)" offset="0.40625"/><stop stop-opacity="1" stop-color="rgb(19.697571%, 52.418518%, 84.457397%)" offset="0.410156"/><stop stop-opacity="1" stop-color="rgb(19.885254%, 52.185059%, 84.500122%)" offset="0.414062"/><stop stop-opacity="1" stop-color="rgb(20.072937%, 51.951599%, 84.542847%)" offset="0.417969"/><stop stop-opacity="1" stop-color="rgb(20.26062%, 51.71814%, 84.585571%)" offset="0.421875"/><stop stop-opacity="1" stop-color="rgb(20.448303%, 51.48468%, 84.62677%)" offset="0.425781"/><stop stop-opacity="1" stop-color="rgb(20.635986%, 51.252747%, 84.669495%)" offset="0.429688"/><stop stop-opacity="1" stop-color="rgb(20.823669%, 51.019287%, 84.712219%)" offset="0.433594"/><stop stop-opacity="1" stop-color="rgb(21.011353%, 50.785828%, 84.754944%)" offset="0.4375"/><stop stop-opacity="1" stop-color="rgb(21.199036%, 50.552368%, 84.797668%)" offset="0.441406"/><stop stop-opacity="1" stop-color="rgb(21.386719%, 50.320435%, 84.840393%)" offset="0.445313"/><stop stop-opacity="1" stop-color="rgb(21.572876%, 50.086975%, 84.881592%)" offset="0.449219"/><stop stop-opacity="1" stop-color="rgb(21.760559%, 49.853516%, 84.924316%)" offset="0.453125"/><stop stop-opacity="1" stop-color="rgb(21.948242%, 49.620056%, 84.967041%)" offset="0.457031"/><stop stop-opacity="1" stop-color="rgb(22.135925%, 49.386597%, 85.009766%)" offset="0.460938"/><stop stop-opacity="1" stop-color="rgb(22.323608%, 49.153137%, 85.05249%)" offset="0.464844"/><stop stop-opacity="1" stop-color="rgb(22.511292%, 48.921204%, 85.095215%)" offset="0.46875"/><stop stop-opacity="1" stop-color="rgb(22.698975%, 48.687744%, 85.136414%)" offset="0.472656"/><stop stop-opacity="1" stop-color="rgb(22.886658%, 48.454285%, 85.179138%)" offset="0.476563"/><stop stop-opacity="1" stop-color="rgb(23.074341%, 48.220825%, 85.221863%)" offset="0.480469"/><stop stop-opacity="1" stop-color="rgb(23.262024%, 47.988892%, 85.264587%)" offset="0.484375"/><stop stop-opacity="1" stop-color="rgb(23.449707%, 47.755432%, 85.307312%)" offset="0.488281"/><stop stop-opacity="1" stop-color="rgb(23.63739%, 47.521973%, 85.350037%)" offset="0.492188"/><stop stop-opacity="1" stop-color="rgb(23.825073%, 47.288513%, 85.391235%)" offset="0.496094"/><stop stop-opacity="1" stop-color="rgb(24.012756%, 47.055054%, 85.43396%)" offset="0.5"/><stop stop-opacity="1" stop-color="rgb(24.200439%, 46.821594%, 85.476685%)" offset="0.503906"/><stop stop-opacity="1" stop-color="rgb(24.388123%, 46.589661%, 85.519409%)" offset="0.507812"/><stop stop-opacity="1" stop-color="rgb(24.575806%, 46.356201%, 85.562134%)" offset="0.511719"/><stop stop-opacity="1" stop-color="rgb(24.763489%, 46.122742%, 85.604858%)" offset="0.515625"/><stop stop-opacity="1" stop-color="rgb(24.951172%, 45.889282%, 85.646057%)" offset="0.519531"/><stop stop-opacity="1" stop-color="rgb(25.138855%, 45.657349%, 85.688782%)" offset="0.523438"/><stop stop-opacity="1" stop-color="rgb(25.325012%, 45.423889%, 85.731506%)" offset="0.527344"/><stop stop-opacity="1" stop-color="rgb(25.512695%, 45.19043%, 85.774231%)" offset="0.53125"/><stop stop-opacity="1" stop-color="rgb(25.700378%, 44.95697%, 85.816956%)" offset="0.535156"/><stop stop-opacity="1" stop-color="rgb(25.888062%, 44.723511%, 85.85968%)" offset="0.539062"/><stop stop-opacity="1" stop-color="rgb(26.075745%, 44.490051%, 85.900879%)" offset="0.542969"/><stop stop-opacity="1" stop-color="rgb(26.263428%, 44.258118%, 85.943604%)" offset="0.546875"/><stop stop-opacity="1" stop-color="rgb(26.451111%, 44.024658%, 85.986328%)" offset="0.550781"/><stop stop-opacity="1" stop-color="rgb(26.638794%, 43.791199%, 86.029053%)" offset="0.554688"/><stop stop-opacity="1" stop-color="rgb(26.826477%, 43.557739%, 86.070251%)" offset="0.558594"/><stop stop-opacity="1" stop-color="rgb(27.01416%, 43.325806%, 86.112976%)" offset="0.5625"/><stop stop-opacity="1" stop-color="rgb(27.201843%, 43.092346%, 86.155701%)" offset="0.566406"/><stop stop-opacity="1" stop-color="rgb(27.389526%, 42.858887%, 86.198425%)" offset="0.570312"/><stop stop-opacity="1" stop-color="rgb(27.577209%, 42.625427%, 86.24115%)" offset="0.574219"/><stop stop-opacity="1" stop-color="rgb(27.764893%, 42.391968%, 86.283875%)" offset="0.578125"/><stop stop-opacity="1" stop-color="rgb(27.952576%, 42.158508%, 86.325073%)" offset="0.582031"/><stop stop-opacity="1" stop-color="rgb(28.140259%, 41.926575%, 86.367798%)" offset="0.585938"/><stop stop-opacity="1" stop-color="rgb(28.327942%, 41.693115%, 86.410522%)" offset="0.589844"/><stop stop-opacity="1" stop-color="rgb(28.515625%, 41.459656%, 86.453247%)" offset="0.59375"/><stop stop-opacity="1" stop-color="rgb(28.701782%, 41.226196%, 86.495972%)" offset="0.597656"/><stop stop-opacity="1" stop-color="rgb(28.889465%, 40.994263%, 86.538696%)" offset="0.601562"/><stop stop-opacity="1" stop-color="rgb(29.077148%, 40.760803%, 86.579895%)" offset="0.605469"/><stop stop-opacity="1" stop-color="rgb(29.264832%, 40.527344%, 86.62262%)" offset="0.609375"/><stop stop-opacity="1" stop-color="rgb(29.452515%, 40.293884%, 86.665344%)" offset="0.613281"/><stop stop-opacity="1" stop-color="rgb(29.640198%, 40.060425%, 86.708069%)" offset="0.617187"/><stop stop-opacity="1" stop-color="rgb(29.827881%, 39.826965%, 86.750793%)" offset="0.621094"/><stop stop-opacity="1" stop-color="rgb(30.015564%, 39.595032%, 86.793518%)" offset="0.625"/><stop stop-opacity="1" stop-color="rgb(30.203247%, 39.361572%, 86.834717%)" offset="0.628906"/><stop stop-opacity="1" stop-color="rgb(30.39093%, 39.128113%, 86.877441%)" offset="0.632812"/><stop stop-opacity="1" stop-color="rgb(30.578613%, 38.894653%, 86.920166%)" offset="0.636719"/><stop stop-opacity="1" stop-color="rgb(30.766296%, 38.66272%, 86.962891%)" offset="0.640625"/><stop stop-opacity="1" stop-color="rgb(30.953979%, 38.42926%, 87.005615%)" offset="0.644531"/><stop stop-opacity="1" stop-color="rgb(31.141663%, 38.195801%, 87.04834%)" offset="0.648437"/><stop stop-opacity="1" stop-color="rgb(31.329346%, 37.962341%, 87.089539%)" offset="0.652344"/><stop stop-opacity="1" stop-color="rgb(31.517029%, 37.728882%, 87.132263%)" offset="0.65625"/><stop stop-opacity="1" stop-color="rgb(31.704712%, 37.495422%, 87.174988%)" offset="0.660156"/><stop stop-opacity="1" stop-color="rgb(31.892395%, 37.263489%, 87.217712%)" offset="0.664062"/><stop stop-opacity="1" stop-color="rgb(32.080078%, 37.030029%, 87.260437%)" offset="0.667969"/><stop stop-opacity="1" stop-color="rgb(32.267761%, 36.79657%, 87.303162%)" offset="0.671875"/><stop stop-opacity="1" stop-color="rgb(32.453918%, 36.56311%, 87.34436%)" offset="0.675781"/><stop stop-opacity="1" stop-color="rgb(32.641602%, 36.331177%, 87.387085%)" offset="0.679688"/><stop stop-opacity="1" stop-color="rgb(32.829285%, 36.097717%, 87.42981%)" offset="0.683594"/><stop stop-opacity="1" stop-color="rgb(33.016968%, 35.864258%, 87.472534%)" offset="0.6875"/><stop stop-opacity="1" stop-color="rgb(33.204651%, 35.630798%, 87.515259%)" offset="0.691406"/><stop stop-opacity="1" stop-color="rgb(33.392334%, 35.397339%, 87.557983%)" offset="0.695313"/><stop stop-opacity="1" stop-color="rgb(33.580017%, 35.163879%, 87.599182%)" offset="0.699219"/><stop stop-opacity="1" stop-color="rgb(33.7677%, 34.931946%, 87.641907%)" offset="0.703125"/><stop stop-opacity="1" stop-color="rgb(33.955383%, 34.698486%, 87.684631%)" offset="0.707031"/><stop stop-opacity="1" stop-color="rgb(34.143066%, 34.465027%, 87.727356%)" offset="0.710938"/><stop stop-opacity="1" stop-color="rgb(34.33075%, 34.231567%, 87.770081%)" offset="0.714844"/><stop stop-opacity="1" stop-color="rgb(34.518433%, 33.999634%, 87.812805%)" offset="0.71875"/><stop stop-opacity="1" stop-color="rgb(34.706116%, 33.766174%, 87.854004%)" offset="0.722656"/><stop stop-opacity="1" stop-color="rgb(34.893799%, 33.532715%, 87.896729%)" offset="0.726562"/><stop stop-opacity="1" stop-color="rgb(35.081482%, 33.299255%, 87.939453%)" offset="0.730469"/><stop stop-opacity="1" stop-color="rgb(35.269165%, 33.065796%, 87.982178%)" offset="0.734375"/><stop stop-opacity="1" stop-color="rgb(35.456848%, 32.832336%, 88.024902%)" offset="0.738281"/><stop stop-opacity="1" stop-color="rgb(35.644531%, 32.600403%, 88.067627%)" offset="0.742188"/><stop stop-opacity="1" stop-color="rgb(35.832214%, 32.366943%, 88.108826%)" offset="0.746094"/><stop stop-opacity="1" stop-color="rgb(36.019897%, 32.133484%, 88.15155%)" offset="0.75"/><stop stop-opacity="1" stop-color="rgb(36.206055%, 31.900024%, 88.194275%)" offset="0.753906"/><stop stop-opacity="1" stop-color="rgb(36.393738%, 31.668091%, 88.237%)" offset="0.757812"/><stop stop-opacity="1" stop-color="rgb(36.581421%, 31.434631%, 88.279724%)" offset="0.761719"/><stop stop-opacity="1" stop-color="rgb(36.769104%, 31.201172%, 88.322449%)" offset="0.765625"/><stop stop-opacity="1" stop-color="rgb(36.956787%, 30.967712%, 88.363647%)" offset="0.769531"/><stop stop-opacity="1" stop-color="rgb(37.14447%, 30.734253%, 88.406372%)" offset="0.773437"/><stop stop-opacity="1" stop-color="rgb(37.332153%, 30.500793%, 88.449097%)" offset="0.777344"/><stop stop-opacity="1" stop-color="rgb(37.519836%, 30.26886%, 88.491821%)" offset="0.78125"/><stop stop-opacity="1" stop-color="rgb(37.70752%, 30.0354%, 88.534546%)" offset="0.785156"/><stop stop-opacity="1" stop-color="rgb(37.895203%, 29.801941%, 88.577271%)" offset="0.789062"/><stop stop-opacity="1" stop-color="rgb(38.082886%, 29.568481%, 88.618469%)" offset="0.792969"/><stop stop-opacity="1" stop-color="rgb(38.270569%, 29.336548%, 88.661194%)" offset="0.796875"/><stop stop-opacity="1" stop-color="rgb(38.458252%, 29.103088%, 88.703918%)" offset="0.800781"/><stop stop-opacity="1" stop-color="rgb(38.645935%, 28.869629%, 88.746643%)" offset="0.804687"/><stop stop-opacity="1" stop-color="rgb(38.833618%, 28.636169%, 88.787842%)" offset="0.808594"/><stop stop-opacity="1" stop-color="rgb(39.021301%, 28.40271%, 88.830566%)" offset="0.8125"/><stop stop-opacity="1" stop-color="rgb(39.208984%, 28.16925%, 88.873291%)" offset="0.816406"/><stop stop-opacity="1" stop-color="rgb(39.396667%, 27.937317%, 88.916016%)" offset="0.820312"/><stop stop-opacity="1" stop-color="rgb(39.582825%, 27.703857%, 88.95874%)" offset="0.824219"/><stop stop-opacity="1" stop-color="rgb(39.770508%, 27.470398%, 89.001465%)" offset="0.828125"/><stop stop-opacity="1" stop-color="rgb(39.958191%, 27.236938%, 89.042664%)" offset="0.832031"/><stop stop-opacity="1" stop-color="rgb(40.145874%, 27.005005%, 89.085388%)" offset="0.835937"/><stop stop-opacity="1" stop-color="rgb(40.333557%, 26.771545%, 89.128113%)" offset="0.839844"/><stop stop-opacity="1" stop-color="rgb(40.52124%, 26.538086%, 89.170837%)" offset="0.84375"/><stop stop-opacity="1" stop-color="rgb(40.708923%, 26.304626%, 89.213562%)" offset="0.847656"/><stop stop-opacity="1" stop-color="rgb(40.896606%, 26.071167%, 89.256287%)" offset="0.851562"/><stop stop-opacity="1" stop-color="rgb(41.08429%, 25.837708%, 89.297485%)" offset="0.855469"/><stop stop-opacity="1" stop-color="rgb(41.271973%, 25.605774%, 89.34021%)" offset="0.859375"/><stop stop-opacity="1" stop-color="rgb(41.459656%, 25.372314%, 89.382935%)" offset="0.863281"/><stop stop-opacity="1" stop-color="rgb(41.647339%, 25.138855%, 89.425659%)" offset="0.867187"/><stop stop-opacity="1" stop-color="rgb(41.835022%, 24.905396%, 89.468384%)" offset="0.871094"/><stop stop-opacity="1" stop-color="rgb(42.022705%, 24.673462%, 89.511108%)" offset="0.875"/><stop stop-opacity="1" stop-color="rgb(42.210388%, 24.440002%, 89.552307%)" offset="0.878906"/><stop stop-opacity="1" stop-color="rgb(42.398071%, 24.206543%, 89.595032%)" offset="0.882812"/><stop stop-opacity="1" stop-color="rgb(42.585754%, 23.973083%, 89.637756%)" offset="0.886719"/><stop stop-opacity="1" stop-color="rgb(42.773438%, 23.739624%, 89.680481%)" offset="0.890625"/><stop stop-opacity="1" stop-color="rgb(42.961121%, 23.506165%, 89.723206%)" offset="0.894531"/><stop stop-opacity="1" stop-color="rgb(43.148804%, 23.274231%, 89.76593%)" offset="0.898438"/><stop stop-opacity="1" stop-color="rgb(43.334961%, 23.040771%, 89.807129%)" offset="0.902344"/><stop stop-opacity="1" stop-color="rgb(43.522644%, 22.807312%, 89.849854%)" offset="0.90625"/><stop stop-opacity="1" stop-color="rgb(43.710327%, 22.573853%, 89.892578%)" offset="0.910156"/><stop stop-opacity="1" stop-color="rgb(43.89801%, 22.341919%, 89.935303%)" offset="0.914063"/><stop stop-opacity="1" stop-color="rgb(44.085693%, 22.108459%, 89.978027%)" offset="0.917969"/><stop stop-opacity="1" stop-color="rgb(44.273376%, 21.875%, 90.020752%)" offset="0.921875"/><stop stop-opacity="1" stop-color="rgb(44.46106%, 21.641541%, 90.061951%)" offset="0.925781"/><stop stop-opacity="1" stop-color="rgb(44.648743%, 21.408081%, 90.104675%)" offset="0.929688"/><stop stop-opacity="1" stop-color="rgb(44.836426%, 21.174622%, 90.1474%)" offset="0.933594"/><stop stop-opacity="1" stop-color="rgb(45.024109%, 20.942688%, 90.190125%)" offset="0.9375"/><stop stop-opacity="1" stop-color="rgb(45.211792%, 20.709229%, 90.232849%)" offset="0.941406"/><stop stop-opacity="1" stop-color="rgb(45.399475%, 20.475769%, 90.275574%)" offset="0.945313"/><stop stop-opacity="1" stop-color="rgb(45.587158%, 20.24231%, 90.316772%)" offset="0.949219"/><stop stop-opacity="1" stop-color="rgb(45.774841%, 20.010376%, 90.359497%)" offset="0.953125"/><stop stop-opacity="1" stop-color="rgb(45.962524%, 19.776917%, 90.402222%)" offset="0.957031"/><stop stop-opacity="1" stop-color="rgb(46.150208%, 19.543457%, 90.444946%)" offset="0.960938"/><stop stop-opacity="1" stop-color="rgb(46.337891%, 19.309998%, 90.487671%)" offset="0.964844"/><stop stop-opacity="1" stop-color="rgb(46.525574%, 19.076538%, 90.530396%)" offset="0.96875"/><stop stop-opacity="1" stop-color="rgb(46.713257%, 18.843079%, 90.571594%)" offset="0.972656"/><stop stop-opacity="1" stop-color="rgb(46.90094%, 18.611145%, 90.614319%)" offset="0.976562"/><stop stop-opacity="1" stop-color="rgb(47.087097%, 18.377686%, 90.657043%)" offset="0.980469"/><stop stop-opacity="1" stop-color="rgb(47.27478%, 18.144226%, 90.699768%)" offset="0.984375"/><stop stop-opacity="1" stop-color="rgb(47.462463%, 17.910767%, 90.742493%)" offset="0.988281"/><stop stop-opacity="1" stop-color="rgb(47.650146%, 17.678833%, 90.785217%)" offset="0.992188"/><stop stop-opacity="1" stop-color="rgb(47.83783%, 17.445374%, 90.826416%)" offset="0.996094"/><stop stop-opacity="1" stop-color="rgb(48.025513%, 17.211914%, 90.869141%)" offset="1"/></linearGradient><clipPath id="c63337bcd1"><path d="M 398 227 L 411 227 L 411 591.800781 L 398 591.800781 Z M 398 227 " clip-rule="nonzero"/></clipPath></defs><g clip-path="url(#9c3bda2cca)"><g clip-path="url(#7baa296227)"><path fill="url(#7c9c642ca7)" d="M 72.855469 72.855469 L 72.855469 751.605469 L 751.605469 751.605469 L 751.605469 72.855469 Z M 72.855469 72.855469 " fill-rule="nonzero"/></g></g><path fill="#f14285" d="M 621.054688 313.878906 C 592.882812 284.082031 500.085938 302.273438 434.207031 330.859375 C 415.371094 339.035156 393.914062 339.035156 375.078125 330.859375 C 309.199219 302.273438 216.40625 284.082031 188.230469 313.878906 C 165.730469 337.671875 163.214844 382.710938 185.734375 421.042969 C 334.753906 492.492188 480.695312 492.539062 623.554688 421.042969 C 646.054688 382.710938 643.558594 337.671875 621.054688 313.878906 " fill-opacity="1" fill-rule="nonzero"/><path fill="#eeecf8" d="M 618.722656 397.097656 C 607.769531 378.351562 574.285156 388.714844 564.601562 415.082031 C 563.988281 416.757812 561.566406 416.609375 561.265625 414.8125 C 560.039062 407.789062 558.394531 401.667969 556.210938 397.519531 C 549.582031 384.910156 524.191406 384.792969 507.058594 397.519531 C 501.132812 401.9375 497.410156 408.914062 494.460938 416.308594 C 493.472656 418.796875 492.589844 421.371094 491.707031 423.902344 C 491.167969 425.546875 488.789062 425.277344 488.640625 423.511719 C 488.535156 421.714844 488.371094 419.949219 488.175781 418.332031 L 488.175781 417.910156 C 487.996094 416.339844 487.832031 414.917969 487.636719 413.855469 C 480.515625 372.648438 419.082031 383.488281 409.582031 424.320312 C 408.789062 427.6875 408.097656 431.179688 407.472656 434.667969 C 407.203125 436.238281 406.019531 437.046875 404.761719 437.078125 L 404.644531 437.078125 C 403.339844 437.078125 402.085938 436.269531 401.816406 434.667969 C 401.1875 431.179688 400.5 427.6875 399.707031 424.320312 C 395.757812 407.371094 371.953125 436.957031 373.761719 457.875 C 375.035156 472.652344 400.199219 496.609375 402.144531 492.3125 C 403.492188 489.410156 404.328125 483.34375 404.644531 475.527344 C 404.6875 476.246094 404.71875 476.980469 404.761719 477.667969 C 405.105469 484.453125 405.914062 489.664062 407.140625 492.3125 C 409.085938 496.609375 415.820312 498.257812 419.917969 498.601562 C 437.394531 500.054688 458.582031 499.140625 475.578125 495.921875 C 482.851562 494.5 487.070312 489.707031 488.714844 483.539062 L 488.714844 483.734375 C 489.402344 486.488281 493.007812 488.332031 498.261719 489.410156 C 516.828125 493.078125 556.210938 486.609375 560.996094 475.558594 C 561.265625 474.914062 561.535156 474.074219 561.804688 473.117188 C 564.363281 483.808594 614.84375 476.679688 619.871094 464.644531 C 623.507812 455.867188 626.84375 410.933594 618.722656 397.097656 " fill-opacity="1" fill-rule="nonzero"/><path fill="#fcd5b5" d="M 404.761719 437.078125 L 404.761719 477.667969 C 404.71875 476.980469 404.6875 476.246094 404.644531 475.527344 C 404.328125 483.34375 403.492188 489.410156 402.144531 492.3125 C 400.199219 496.609375 393.464844 498.257812 389.367188 498.601562 C 371.890625 500.054688 350.703125 499.140625 333.707031 495.921875 C 326.4375 494.5 322.21875 489.707031 320.570312 483.539062 L 320.570312 483.734375 C 317.308594 496.339844 254.425781 489.707031 248.289062 475.558594 C 248.019531 474.914062 247.75 474.074219 247.480469 473.117188 C 244.921875 483.808594 194.441406 476.679688 189.414062 464.644531 C 185.777344 455.867188 182.441406 410.933594 190.566406 397.097656 C 201.519531 378.351562 235.003906 388.714844 244.683594 415.082031 C 245.3125 416.757812 247.722656 416.609375 248.019531 414.8125 C 249.246094 407.789062 250.894531 401.667969 253.078125 397.519531 C 259.707031 384.910156 285.097656 384.792969 302.226562 397.519531 C 310.15625 403.417969 314.167969 413.882812 317.578125 423.902344 C 318.117188 425.546875 320.496094 425.277344 320.644531 423.511719 C 320.914062 419.753906 321.257812 416.113281 321.648438 413.855469 C 328.769531 372.648438 390.203125 383.488281 399.707031 424.320312 C 400.5 427.6875 401.1875 431.179688 401.816406 434.667969 C 402.085938 436.269531 403.339844 437.078125 404.644531 437.078125 L 404.761719 437.078125 " fill-opacity="1" fill-rule="nonzero"/><g clip-path="url(#c63337bcd1)"><path fill="#4cbdc6" d="M 404.644531 253.910156 C 401.472656 253.910156 398.898438 251.351562 398.898438 248.160156 L 398.898438 232.828125 C 398.898438 229.671875 401.472656 227.078125 404.644531 227.078125 C 407.816406 227.078125 410.390625 229.671875 410.390625 232.828125 L 410.390625 248.160156 C 410.390625 251.351562 407.816406 253.910156 404.644531 253.910156 Z M 404.644531 284.589844 C 401.472656 284.589844 398.898438 282.015625 398.898438 278.84375 L 398.898438 263.507812 C 398.898438 260.335938 401.472656 257.746094 404.644531 257.746094 C 407.816406 257.746094 410.390625 260.335938 410.390625 263.507812 L 410.390625 278.84375 C 410.390625 282.015625 407.816406 284.589844 404.644531 284.589844 Z M 404.644531 315.257812 C 401.472656 315.257812 398.898438 312.679688 398.898438 309.507812 L 398.898438 294.175781 C 398.898438 291 401.472656 288.425781 404.644531 288.425781 C 407.816406 288.425781 410.390625 291 410.390625 294.175781 L 410.390625 309.507812 C 410.390625 312.679688 407.816406 315.257812 404.644531 315.257812 Z M 404.644531 345.921875 C 401.472656 345.921875 398.898438 343.347656 398.898438 340.171875 L 398.898438 324.839844 C 398.898438 321.664062 401.472656 319.089844 404.644531 319.089844 C 407.816406 319.089844 410.390625 321.664062 410.390625 324.839844 L 410.390625 340.171875 C 410.390625 343.347656 407.816406 345.921875 404.644531 345.921875 Z M 404.644531 376.585938 C 401.472656 376.585938 398.898438 374.011719 398.898438 370.835938 L 398.898438 355.503906 C 398.898438 352.328125 401.472656 349.753906 404.644531 349.753906 C 407.816406 349.753906 410.390625 352.328125 410.390625 355.503906 L 410.390625 370.835938 C 410.390625 374.011719 407.816406 376.585938 404.644531 376.585938 Z M 404.644531 407.25 C 401.472656 407.25 398.898438 404.675781 398.898438 401.5 L 398.898438 386.167969 C 398.898438 382.996094 401.472656 380.417969 404.644531 380.417969 C 407.816406 380.417969 410.390625 382.996094 410.390625 386.167969 L 410.390625 401.5 C 410.390625 404.675781 407.816406 407.25 404.644531 407.25 Z M 404.644531 437.917969 C 401.472656 437.917969 398.898438 435.339844 398.898438 432.167969 L 398.898438 416.832031 C 398.898438 413.660156 401.472656 411.085938 404.644531 411.085938 C 407.816406 411.085938 410.390625 413.660156 410.390625 416.832031 L 410.390625 432.167969 C 410.390625 435.339844 407.816406 437.917969 404.644531 437.917969 Z M 404.644531 468.582031 C 401.472656 468.582031 398.898438 466.003906 398.898438 462.832031 L 398.898438 447.5 C 398.898438 444.324219 401.472656 441.75 404.644531 441.75 C 407.816406 441.75 410.390625 444.324219 410.390625 447.5 L 410.390625 462.832031 C 410.390625 466.003906 407.816406 468.582031 404.644531 468.582031 Z M 404.644531 499.246094 C 401.472656 499.246094 398.898438 496.671875 398.898438 493.496094 L 398.898438 478.164062 C 398.898438 474.988281 401.472656 472.414062 404.644531 472.414062 C 407.816406 472.414062 410.390625 474.988281 410.390625 478.164062 L 410.390625 493.496094 C 410.390625 496.671875 407.816406 499.246094 404.644531 499.246094 Z M 404.644531 529.910156 C 401.472656 529.910156 398.898438 527.335938 398.898438 524.160156 L 398.898438 508.828125 C 398.898438 505.65625 401.472656 503.078125 404.644531 503.078125 C 407.816406 503.078125 410.390625 505.65625 410.390625 508.828125 L 410.390625 524.160156 C 410.390625 527.335938 407.816406 529.910156 404.644531 529.910156 Z M 404.644531 560.5625 C 401.472656 560.5625 398.898438 558 398.898438 554.8125 L 398.898438 539.480469 C 398.898438 536.320312 401.472656 533.742188 404.644531 533.742188 C 407.816406 533.742188 410.390625 536.320312 410.390625 539.480469 L 410.390625 554.8125 C 410.390625 558 407.816406 560.5625 404.644531 560.5625 Z M 404.644531 591.226562 C 401.472656 591.226562 398.898438 588.664062 398.898438 585.476562 L 398.898438 570.144531 C 398.898438 566.984375 401.472656 564.394531 404.644531 564.394531 C 407.816406 564.394531 410.390625 566.984375 410.390625 570.144531 L 410.390625 585.476562 C 410.390625 588.664062 407.816406 591.226562 404.644531 591.226562 " fill-opacity="1" fill-rule="nonzero"/></g><path fill="#f9aa43" d="M 514.03125 183.925781 L 508.691406 193.691406 C 506.683594 197.386719 503.632812 200.441406 499.9375 202.464844 L 490.179688 207.792969 C 488.207031 208.871094 488.207031 211.71875 490.179688 212.796875 L 499.9375 218.125 C 503.632812 220.164062 506.683594 223.203125 508.691406 226.898438 L 514.03125 236.664062 C 515.109375 238.640625 517.953125 238.640625 519.027344 236.664062 L 524.371094 226.898438 C 526.375 223.203125 529.425781 220.164062 533.121094 218.125 L 542.878906 212.796875 C 544.851562 211.71875 544.851562 208.871094 542.878906 207.792969 L 533.121094 202.464844 C 529.425781 200.441406 526.375 197.386719 524.371094 193.691406 L 519.027344 183.925781 C 517.953125 181.949219 515.109375 181.949219 514.03125 183.925781 " fill-opacity="1" fill-rule="nonzero"/><path fill="#f9aa43" d="M 579.386719 232.007812 L 575.121094 239.820312 C 573.503906 242.785156 571.066406 245.226562 568.105469 246.84375 L 560.292969 251.125 C 558.707031 251.980469 558.707031 254.257812 560.292969 255.125 L 568.105469 259.40625 C 571.066406 261.023438 573.503906 263.464844 575.121094 266.429688 L 579.386719 274.246094 C 580.253906 275.832031 582.527344 275.832031 583.394531 274.246094 L 587.660156 266.429688 C 589.289062 263.464844 591.730469 261.023438 594.691406 259.40625 L 602.5 255.125 C 604.089844 254.257812 604.089844 251.980469 602.5 251.125 L 594.691406 246.84375 C 591.730469 245.226562 589.289062 242.785156 587.660156 239.820312 L 583.394531 232.007812 C 582.527344 230.417969 580.253906 230.417969 579.386719 232.007812 " fill-opacity="1" fill-rule="nonzero"/></svg>