<svg xmlns="http://www.w3.org/2000/svg" xmlns:xlink="http://www.w3.org/1999/xlink" width="1080" zoomAndPan="magnify" viewBox="0 0 810 809.999993" height="1080" preserveAspectRatio="xMidYMid meet" version="1.0"><defs><clipPath id="5fcf8aae95"><path d="M 72.855469 72.855469 L 751.605469 72.855469 L 751.605469 751.605469 L 72.855469 751.605469 Z M 72.855469 72.855469 " clip-rule="nonzero"/></clipPath><clipPath id="bf7f05f8df"><path d="M 751.605469 412.230469 C 751.605469 417.785156 751.46875 423.335938 751.199219 428.882812 C 750.925781 434.429688 750.515625 439.96875 749.972656 445.496094 C 749.425781 451.023438 748.75 456.535156 747.933594 462.027344 C 747.117188 467.523438 746.167969 472.992188 745.085938 478.441406 C 744 483.886719 742.785156 489.304688 741.4375 494.691406 C 740.085938 500.082031 738.605469 505.433594 736.992188 510.746094 C 735.378906 516.0625 733.640625 521.332031 731.769531 526.5625 C 729.898438 531.792969 727.898438 536.972656 725.773438 542.105469 C 723.648438 547.234375 721.398438 552.3125 719.023438 557.332031 C 716.648438 562.355469 714.152344 567.3125 711.535156 572.210938 C 708.914062 577.109375 706.179688 581.941406 703.324219 586.703125 C 700.46875 591.46875 697.496094 596.160156 694.410156 600.777344 C 691.324219 605.394531 688.128906 609.9375 684.820312 614.398438 C 681.511719 618.859375 678.09375 623.234375 674.570312 627.527344 C 671.046875 631.820312 667.421875 636.027344 663.691406 640.140625 C 659.960938 644.257812 656.132812 648.277344 652.207031 652.207031 C 648.277344 656.132812 644.257812 659.960938 640.140625 663.691406 C 636.027344 667.421875 631.820312 671.046875 627.527344 674.570312 C 623.234375 678.09375 618.859375 681.511719 614.398438 684.820312 C 609.9375 688.128906 605.394531 691.324219 600.777344 694.410156 C 596.160156 697.496094 591.46875 700.46875 586.703125 703.324219 C 581.941406 706.179688 577.109375 708.914062 572.210938 711.535156 C 567.3125 714.152344 562.355469 716.648438 557.332031 719.023438 C 552.3125 721.398438 547.234375 723.648438 542.105469 725.773438 C 536.972656 727.898438 531.792969 729.898438 526.5625 731.769531 C 521.332031 733.640625 516.0625 735.378906 510.746094 736.992188 C 505.433594 738.605469 500.082031 740.085938 494.691406 741.4375 C 489.304688 742.785156 483.886719 744 478.441406 745.085938 C 472.992188 746.167969 467.523438 747.117188 462.027344 747.933594 C 456.535156 748.746094 451.023438 749.429688 445.496094 749.972656 C 439.96875 750.515625 434.429688 750.925781 428.882812 751.199219 C 423.335938 751.46875 417.785156 751.605469 412.230469 751.605469 C 406.675781 751.605469 401.125 751.46875 395.578125 751.199219 C 390.03125 750.925781 384.496094 750.515625 378.964844 749.972656 C 373.4375 749.429688 367.929688 748.75 362.433594 747.933594 C 356.941406 747.117188 351.46875 746.167969 346.023438 745.085938 C 340.574219 744 335.15625 742.785156 329.769531 741.4375 C 324.382812 740.085938 319.03125 738.605469 313.714844 736.992188 C 308.402344 735.378906 303.128906 733.640625 297.898438 731.769531 C 292.667969 729.898438 287.488281 727.898438 282.359375 725.773438 C 277.226562 723.648438 272.152344 721.398438 267.128906 719.023438 C 262.109375 716.648438 257.148438 714.152344 252.25 711.535156 C 247.351562 708.914062 242.523438 706.179688 237.757812 703.324219 C 232.992188 700.46875 228.304688 697.496094 223.683594 694.410156 C 219.066406 691.324219 214.527344 688.128906 210.066406 684.820312 C 205.605469 681.511719 201.226562 678.09375 196.933594 674.570312 C 192.640625 671.046875 188.4375 667.421875 184.320312 663.691406 C 180.207031 659.960938 176.183594 656.132812 172.257812 652.207031 C 168.328125 648.277344 164.5 644.257812 160.769531 640.140625 C 157.042969 636.027344 153.414062 631.820312 149.890625 627.527344 C 146.367188 623.234375 142.953125 618.859375 139.644531 614.398438 C 136.335938 609.9375 133.136719 605.394531 130.050781 600.777344 C 126.964844 596.160156 123.996094 591.46875 121.140625 586.703125 C 118.285156 581.941406 115.546875 577.109375 112.929688 572.210938 C 110.3125 567.3125 107.816406 562.355469 105.441406 557.332031 C 103.066406 552.3125 100.816406 547.234375 98.691406 542.105469 C 96.5625 536.972656 94.566406 531.792969 92.695312 526.5625 C 90.824219 521.332031 89.082031 516.0625 87.46875 510.746094 C 85.859375 505.433594 84.375 500.082031 83.027344 494.691406 C 81.675781 489.304688 80.460938 483.886719 79.378906 478.441406 C 78.292969 472.992188 77.34375 467.523438 76.53125 462.027344 C 75.714844 456.535156 75.035156 451.023438 74.492188 445.496094 C 73.945312 439.96875 73.539062 434.429688 73.265625 428.882812 C 72.992188 423.335938 72.855469 417.785156 72.855469 412.230469 C 72.855469 406.675781 72.992188 401.125 73.265625 395.578125 C 73.539062 390.03125 73.945312 384.496094 74.492188 378.96875 C 75.035156 373.4375 75.714844 367.929688 76.53125 362.433594 C 77.34375 356.941406 78.292969 351.46875 79.378906 346.023438 C 80.460938 340.574219 81.675781 335.15625 83.027344 329.769531 C 84.375 324.382812 85.859375 319.03125 87.46875 313.714844 C 89.082031 308.402344 90.824219 303.128906 92.695312 297.898438 C 94.566406 292.667969 96.5625 287.488281 98.691406 282.359375 C 100.816406 277.226562 103.066406 272.152344 105.441406 267.128906 C 107.816406 262.109375 110.3125 257.148438 112.929688 252.25 C 115.546875 247.351562 118.285156 242.523438 121.140625 237.757812 C 123.996094 232.992188 126.964844 228.304688 130.050781 223.683594 C 133.136719 219.066406 136.335938 214.527344 139.644531 210.066406 C 142.953125 205.605469 146.367188 201.226562 149.890625 196.933594 C 153.414062 192.640625 157.042969 188.4375 160.769531 184.320312 C 164.5 180.207031 168.328125 176.183594 172.257812 172.257812 C 176.183594 168.328125 180.207031 164.5 184.320312 160.769531 C 188.4375 157.042969 192.640625 153.414062 196.933594 149.890625 C 201.226562 146.367188 205.605469 142.953125 210.066406 139.644531 C 214.527344 136.335938 219.066406 133.136719 223.683594 130.050781 C 228.304688 126.964844 232.992188 123.996094 237.757812 121.140625 C 242.523438 118.285156 247.351562 115.546875 252.25 112.929688 C 257.148438 110.3125 262.109375 107.816406 267.128906 105.441406 C 272.152344 103.066406 277.226562 100.816406 282.359375 98.691406 C 287.488281 96.5625 292.667969 94.566406 297.898438 92.695312 C 303.128906 90.824219 308.402344 89.082031 313.714844 87.46875 C 319.03125 85.859375 324.382812 84.375 329.769531 83.027344 C 335.15625 81.675781 340.574219 80.460938 346.023438 79.378906 C 351.46875 78.292969 356.941406 77.34375 362.433594 76.53125 C 367.929688 75.714844 373.4375 75.035156 378.964844 74.492188 C 384.496094 73.945312 390.03125 73.539062 395.578125 73.265625 C 401.125 72.992188 406.675781 72.855469 412.230469 72.855469 C 417.785156 72.855469 423.335938 72.992188 428.882812 73.265625 C 434.429688 73.539062 439.96875 73.945312 445.496094 74.492188 C 451.023438 75.035156 456.535156 75.714844 462.027344 76.53125 C 467.523438 77.34375 472.992188 78.292969 478.441406 79.378906 C 483.886719 80.460938 489.304688 81.675781 494.691406 83.027344 C 500.082031 84.375 505.433594 85.859375 510.746094 87.46875 C 516.0625 89.082031 521.332031 90.824219 526.5625 92.695312 C 531.792969 94.566406 536.972656 96.5625 542.105469 98.691406 C 547.234375 100.816406 552.3125 103.066406 557.332031 105.441406 C 562.355469 107.816406 567.3125 110.3125 572.210938 112.929688 C 577.109375 115.546875 581.941406 118.285156 586.703125 121.140625 C 591.46875 123.996094 596.160156 126.964844 600.777344 130.050781 C 605.394531 133.136719 609.9375 136.335938 614.398438 139.644531 C 618.859375 142.953125 623.234375 146.367188 627.527344 149.890625 C 631.820312 153.414062 636.027344 157.042969 640.140625 160.769531 C 644.257812 164.5 648.277344 168.328125 652.207031 172.257812 C 656.132812 176.183594 659.960938 180.207031 663.691406 184.320312 C 667.421875 188.4375 671.046875 192.640625 674.570312 196.933594 C 678.09375 201.226562 681.511719 205.605469 684.820312 210.066406 C 688.128906 214.527344 691.324219 219.066406 694.410156 223.683594 C 697.496094 228.304688 700.46875 232.992188 703.324219 237.757812 C 706.179688 242.523438 708.914062 247.351562 711.535156 252.25 C 714.152344 257.148438 716.648438 262.109375 719.023438 267.128906 C 721.398438 272.152344 723.648438 277.226562 725.773438 282.359375 C 727.898438 287.488281 729.898438 292.667969 731.769531 297.898438 C 733.640625 303.128906 735.378906 308.402344 736.992188 313.714844 C 738.605469 319.03125 740.085938 324.382812 741.4375 329.769531 C 742.785156 335.15625 744 340.574219 745.085938 346.023438 C 746.167969 351.46875 747.117188 356.941406 747.933594 362.433594 C 748.746094 367.929688 749.425781 373.4375 749.972656 378.96875 C 750.515625 384.496094 750.925781 390.03125 751.199219 395.578125 C 751.46875 401.125 751.605469 406.675781 751.605469 412.230469 Z M 751.605469 412.230469 " clip-rule="nonzero"/></clipPath><linearGradient x1="-0.0000000105244" gradientTransform="matrix(678.749994, 0, 0, 678.749994, 72.856372, 72.856399)" y1="-0.0000000104212" x2="1.004902" gradientUnits="userSpaceOnUse" y2="0.995049" id="9f4ec72745"><stop stop-opacity="1" stop-color="rgb(0%, 76.899719%, 79.998779%)" offset="0"/><stop stop-opacity="1" stop-color="rgb(0.186157%, 76.66626%, 80.041504%)" offset="0.00390625"/><stop stop-opacity="1" stop-color="rgb(0.37384%, 76.4328%, 80.084229%)" offset="0.0078125"/><stop stop-opacity="1" stop-color="rgb(0.561523%, 76.199341%, 80.126953%)" offset="0.0117188"/><stop stop-opacity="1" stop-color="rgb(0.749207%, 75.965881%, 80.169678%)" offset="0.015625"/><stop stop-opacity="1" stop-color="rgb(0.93689%, 75.732422%, 80.210876%)" offset="0.0195312"/><stop stop-opacity="1" stop-color="rgb(1.124573%, 75.500488%, 80.253601%)" offset="0.0234375"/><stop stop-opacity="1" stop-color="rgb(1.312256%, 75.267029%, 80.296326%)" offset="0.0273438"/><stop stop-opacity="1" stop-color="rgb(1.499939%, 75.033569%, 80.33905%)" offset="0.03125"/><stop stop-opacity="1" stop-color="rgb(1.687622%, 74.80011%, 80.381775%)" offset="0.0351562"/><stop stop-opacity="1" stop-color="rgb(1.875305%, 74.568176%, 80.4245%)" offset="0.0390625"/><stop stop-opacity="1" stop-color="rgb(2.062988%, 74.334717%, 80.465698%)" offset="0.0429688"/><stop stop-opacity="1" stop-color="rgb(2.250671%, 74.101257%, 80.508423%)" offset="0.046875"/><stop stop-opacity="1" stop-color="rgb(2.438354%, 73.867798%, 80.551147%)" offset="0.0507812"/><stop stop-opacity="1" stop-color="rgb(2.626038%, 73.634338%, 80.593872%)" offset="0.0546875"/><stop stop-opacity="1" stop-color="rgb(2.813721%, 73.400879%, 80.636597%)" offset="0.0585938"/><stop stop-opacity="1" stop-color="rgb(3.001404%, 73.168945%, 80.679321%)" offset="0.0625"/><stop stop-opacity="1" stop-color="rgb(3.189087%, 72.935486%, 80.72052%)" offset="0.0664062"/><stop stop-opacity="1" stop-color="rgb(3.37677%, 72.702026%, 80.763245%)" offset="0.0703125"/><stop stop-opacity="1" stop-color="rgb(3.562927%, 72.468567%, 80.805969%)" offset="0.0742188"/><stop stop-opacity="1" stop-color="rgb(3.75061%, 72.236633%, 80.848694%)" offset="0.078125"/><stop stop-opacity="1" stop-color="rgb(3.938293%, 72.003174%, 80.891418%)" offset="0.0820312"/><stop stop-opacity="1" stop-color="rgb(4.125977%, 71.769714%, 80.934143%)" offset="0.0859375"/><stop stop-opacity="1" stop-color="rgb(4.31366%, 71.536255%, 80.975342%)" offset="0.0898437"/><stop stop-opacity="1" stop-color="rgb(4.501343%, 71.302795%, 81.018066%)" offset="0.09375"/><stop stop-opacity="1" stop-color="rgb(4.689026%, 71.069336%, 81.060791%)" offset="0.0976562"/><stop stop-opacity="1" stop-color="rgb(4.876709%, 70.837402%, 81.103516%)" offset="0.101562"/><stop stop-opacity="1" stop-color="rgb(5.064392%, 70.603943%, 81.144714%)" offset="0.105469"/><stop stop-opacity="1" stop-color="rgb(5.252075%, 70.370483%, 81.187439%)" offset="0.109375"/><stop stop-opacity="1" stop-color="rgb(5.439758%, 70.137024%, 81.230164%)" offset="0.113281"/><stop stop-opacity="1" stop-color="rgb(5.627441%, 69.90509%, 81.272888%)" offset="0.117187"/><stop stop-opacity="1" stop-color="rgb(5.815125%, 69.671631%, 81.315613%)" offset="0.121094"/><stop stop-opacity="1" stop-color="rgb(6.002808%, 69.438171%, 81.358337%)" offset="0.125"/><stop stop-opacity="1" stop-color="rgb(6.190491%, 69.204712%, 81.399536%)" offset="0.128906"/><stop stop-opacity="1" stop-color="rgb(6.378174%, 68.971252%, 81.442261%)" offset="0.132813"/><stop stop-opacity="1" stop-color="rgb(6.565857%, 68.737793%, 81.484985%)" offset="0.136719"/><stop stop-opacity="1" stop-color="rgb(6.75354%, 68.505859%, 81.52771%)" offset="0.140625"/><stop stop-opacity="1" stop-color="rgb(6.941223%, 68.2724%, 81.570435%)" offset="0.144531"/><stop stop-opacity="1" stop-color="rgb(7.128906%, 68.03894%, 81.613159%)" offset="0.148438"/><stop stop-opacity="1" stop-color="rgb(7.315063%, 67.805481%, 81.654358%)" offset="0.152344"/><stop stop-opacity="1" stop-color="rgb(7.502747%, 67.573547%, 81.697083%)" offset="0.15625"/><stop stop-opacity="1" stop-color="rgb(7.69043%, 67.340088%, 81.739807%)" offset="0.160156"/><stop stop-opacity="1" stop-color="rgb(7.878113%, 67.106628%, 81.782532%)" offset="0.164062"/><stop stop-opacity="1" stop-color="rgb(8.065796%, 66.873169%, 81.825256%)" offset="0.167969"/><stop stop-opacity="1" stop-color="rgb(8.253479%, 66.641235%, 81.867981%)" offset="0.171875"/><stop stop-opacity="1" stop-color="rgb(8.441162%, 66.407776%, 81.90918%)" offset="0.175781"/><stop stop-opacity="1" stop-color="rgb(8.628845%, 66.174316%, 81.951904%)" offset="0.179688"/><stop stop-opacity="1" stop-color="rgb(8.816528%, 65.940857%, 81.994629%)" offset="0.183594"/><stop stop-opacity="1" stop-color="rgb(9.004211%, 65.707397%, 82.037354%)" offset="0.1875"/><stop stop-opacity="1" stop-color="rgb(9.191895%, 65.473938%, 82.080078%)" offset="0.191406"/><stop stop-opacity="1" stop-color="rgb(9.379578%, 65.242004%, 82.122803%)" offset="0.195313"/><stop stop-opacity="1" stop-color="rgb(9.567261%, 65.008545%, 82.164001%)" offset="0.199219"/><stop stop-opacity="1" stop-color="rgb(9.754944%, 64.775085%, 82.206726%)" offset="0.203125"/><stop stop-opacity="1" stop-color="rgb(9.942627%, 64.541626%, 82.249451%)" offset="0.207031"/><stop stop-opacity="1" stop-color="rgb(10.13031%, 64.309692%, 82.292175%)" offset="0.210938"/><stop stop-opacity="1" stop-color="rgb(10.317993%, 64.076233%, 82.3349%)" offset="0.214844"/><stop stop-opacity="1" stop-color="rgb(10.505676%, 63.842773%, 82.377625%)" offset="0.21875"/><stop stop-opacity="1" stop-color="rgb(10.691833%, 63.609314%, 82.418823%)" offset="0.222656"/><stop stop-opacity="1" stop-color="rgb(10.879517%, 63.375854%, 82.461548%)" offset="0.226562"/><stop stop-opacity="1" stop-color="rgb(11.0672%, 63.142395%, 82.504272%)" offset="0.230469"/><stop stop-opacity="1" stop-color="rgb(11.254883%, 62.910461%, 82.546997%)" offset="0.234375"/><stop stop-opacity="1" stop-color="rgb(11.442566%, 62.677002%, 82.589722%)" offset="0.238281"/><stop stop-opacity="1" stop-color="rgb(11.630249%, 62.443542%, 82.632446%)" offset="0.242188"/><stop stop-opacity="1" stop-color="rgb(11.817932%, 62.210083%, 82.673645%)" offset="0.246094"/><stop stop-opacity="1" stop-color="rgb(12.005615%, 61.978149%, 82.71637%)" offset="0.25"/><stop stop-opacity="1" stop-color="rgb(12.193298%, 61.74469%, 82.759094%)" offset="0.253906"/><stop stop-opacity="1" stop-color="rgb(12.380981%, 61.51123%, 82.801819%)" offset="0.257813"/><stop stop-opacity="1" stop-color="rgb(12.568665%, 61.277771%, 82.844543%)" offset="0.261719"/><stop stop-opacity="1" stop-color="rgb(12.756348%, 61.044312%, 82.887268%)" offset="0.265625"/><stop stop-opacity="1" stop-color="rgb(12.944031%, 60.810852%, 82.928467%)" offset="0.269531"/><stop stop-opacity="1" stop-color="rgb(13.131714%, 60.578918%, 82.971191%)" offset="0.273438"/><stop stop-opacity="1" stop-color="rgb(13.319397%, 60.345459%, 83.013916%)" offset="0.277344"/><stop stop-opacity="1" stop-color="rgb(13.50708%, 60.112%, 83.056641%)" offset="0.28125"/><stop stop-opacity="1" stop-color="rgb(13.694763%, 59.87854%, 83.099365%)" offset="0.285156"/><stop stop-opacity="1" stop-color="rgb(13.882446%, 59.646606%, 83.14209%)" offset="0.289062"/><stop stop-opacity="1" stop-color="rgb(14.070129%, 59.413147%, 83.183289%)" offset="0.292969"/><stop stop-opacity="1" stop-color="rgb(14.257812%, 59.179688%, 83.226013%)" offset="0.296875"/><stop stop-opacity="1" stop-color="rgb(14.44397%, 58.946228%, 83.268738%)" offset="0.300781"/><stop stop-opacity="1" stop-color="rgb(14.631653%, 58.712769%, 83.311462%)" offset="0.304688"/><stop stop-opacity="1" stop-color="rgb(14.819336%, 58.479309%, 83.354187%)" offset="0.308594"/><stop stop-opacity="1" stop-color="rgb(15.007019%, 58.247375%, 83.396912%)" offset="0.3125"/><stop stop-opacity="1" stop-color="rgb(15.194702%, 58.013916%, 83.43811%)" offset="0.316406"/><stop stop-opacity="1" stop-color="rgb(15.382385%, 57.780457%, 83.480835%)" offset="0.320313"/><stop stop-opacity="1" stop-color="rgb(15.570068%, 57.546997%, 83.52356%)" offset="0.324219"/><stop stop-opacity="1" stop-color="rgb(15.757751%, 57.315063%, 83.566284%)" offset="0.328125"/><stop stop-opacity="1" stop-color="rgb(15.945435%, 57.081604%, 83.607483%)" offset="0.332031"/><stop stop-opacity="1" stop-color="rgb(16.133118%, 56.848145%, 83.650208%)" offset="0.335938"/><stop stop-opacity="1" stop-color="rgb(16.320801%, 56.614685%, 83.692932%)" offset="0.339844"/><stop stop-opacity="1" stop-color="rgb(16.508484%, 56.381226%, 83.735657%)" offset="0.34375"/><stop stop-opacity="1" stop-color="rgb(16.696167%, 56.147766%, 83.778381%)" offset="0.347656"/><stop stop-opacity="1" stop-color="rgb(16.88385%, 55.915833%, 83.821106%)" offset="0.351563"/><stop stop-opacity="1" stop-color="rgb(17.071533%, 55.682373%, 83.862305%)" offset="0.355469"/><stop stop-opacity="1" stop-color="rgb(17.259216%, 55.448914%, 83.905029%)" offset="0.359375"/><stop stop-opacity="1" stop-color="rgb(17.446899%, 55.215454%, 83.947754%)" offset="0.363281"/><stop stop-opacity="1" stop-color="rgb(17.634583%, 54.983521%, 83.990479%)" offset="0.367188"/><stop stop-opacity="1" stop-color="rgb(17.822266%, 54.750061%, 84.033203%)" offset="0.371094"/><stop stop-opacity="1" stop-color="rgb(18.009949%, 54.516602%, 84.075928%)" offset="0.375"/><stop stop-opacity="1" stop-color="rgb(18.196106%, 54.283142%, 84.117126%)" offset="0.378906"/><stop stop-opacity="1" stop-color="rgb(18.383789%, 54.049683%, 84.159851%)" offset="0.382813"/><stop stop-opacity="1" stop-color="rgb(18.571472%, 53.816223%, 84.202576%)" offset="0.386719"/><stop stop-opacity="1" stop-color="rgb(18.759155%, 53.58429%, 84.2453%)" offset="0.390625"/><stop stop-opacity="1" stop-color="rgb(18.946838%, 53.35083%, 84.288025%)" offset="0.394531"/><stop stop-opacity="1" stop-color="rgb(19.134521%, 53.117371%, 84.33075%)" offset="0.398438"/><stop stop-opacity="1" stop-color="rgb(19.322205%, 52.883911%, 84.371948%)" offset="0.402344"/><stop stop-opacity="1" stop-color="rgb(19.509888%, 52.651978%, 84.414673%)" offset="0.40625"/><stop stop-opacity="1" stop-color="rgb(19.697571%, 52.418518%, 84.457397%)" offset="0.410156"/><stop stop-opacity="1" stop-color="rgb(19.885254%, 52.185059%, 84.500122%)" offset="0.414062"/><stop stop-opacity="1" stop-color="rgb(20.072937%, 51.951599%, 84.542847%)" offset="0.417969"/><stop stop-opacity="1" stop-color="rgb(20.26062%, 51.71814%, 84.585571%)" offset="0.421875"/><stop stop-opacity="1" stop-color="rgb(20.448303%, 51.48468%, 84.62677%)" offset="0.425781"/><stop stop-opacity="1" stop-color="rgb(20.635986%, 51.252747%, 84.669495%)" offset="0.429688"/><stop stop-opacity="1" stop-color="rgb(20.823669%, 51.019287%, 84.712219%)" offset="0.433594"/><stop stop-opacity="1" stop-color="rgb(21.011353%, 50.785828%, 84.754944%)" offset="0.4375"/><stop stop-opacity="1" stop-color="rgb(21.199036%, 50.552368%, 84.797668%)" offset="0.441406"/><stop stop-opacity="1" stop-color="rgb(21.386719%, 50.320435%, 84.840393%)" offset="0.445313"/><stop stop-opacity="1" stop-color="rgb(21.572876%, 50.086975%, 84.881592%)" offset="0.449219"/><stop stop-opacity="1" stop-color="rgb(21.760559%, 49.853516%, 84.924316%)" offset="0.453125"/><stop stop-opacity="1" stop-color="rgb(21.948242%, 49.620056%, 84.967041%)" offset="0.457031"/><stop stop-opacity="1" stop-color="rgb(22.135925%, 49.386597%, 85.009766%)" offset="0.460938"/><stop stop-opacity="1" stop-color="rgb(22.323608%, 49.153137%, 85.05249%)" offset="0.464844"/><stop stop-opacity="1" stop-color="rgb(22.511292%, 48.921204%, 85.095215%)" offset="0.46875"/><stop stop-opacity="1" stop-color="rgb(22.698975%, 48.687744%, 85.136414%)" offset="0.472656"/><stop stop-opacity="1" stop-color="rgb(22.886658%, 48.454285%, 85.179138%)" offset="0.476563"/><stop stop-opacity="1" stop-color="rgb(23.074341%, 48.220825%, 85.221863%)" offset="0.480469"/><stop stop-opacity="1" stop-color="rgb(23.262024%, 47.988892%, 85.264587%)" offset="0.484375"/><stop stop-opacity="1" stop-color="rgb(23.449707%, 47.755432%, 85.307312%)" offset="0.488281"/><stop stop-opacity="1" stop-color="rgb(23.63739%, 47.521973%, 85.350037%)" offset="0.492188"/><stop stop-opacity="1" stop-color="rgb(23.825073%, 47.288513%, 85.391235%)" offset="0.496094"/><stop stop-opacity="1" stop-color="rgb(24.012756%, 47.055054%, 85.43396%)" offset="0.5"/><stop stop-opacity="1" stop-color="rgb(24.200439%, 46.821594%, 85.476685%)" offset="0.503906"/><stop stop-opacity="1" stop-color="rgb(24.388123%, 46.589661%, 85.519409%)" offset="0.507812"/><stop stop-opacity="1" stop-color="rgb(24.575806%, 46.356201%, 85.562134%)" offset="0.511719"/><stop stop-opacity="1" stop-color="rgb(24.763489%, 46.122742%, 85.604858%)" offset="0.515625"/><stop stop-opacity="1" stop-color="rgb(24.951172%, 45.889282%, 85.646057%)" offset="0.519531"/><stop stop-opacity="1" stop-color="rgb(25.138855%, 45.657349%, 85.688782%)" offset="0.523438"/><stop stop-opacity="1" stop-color="rgb(25.325012%, 45.423889%, 85.731506%)" offset="0.527344"/><stop stop-opacity="1" stop-color="rgb(25.512695%, 45.19043%, 85.774231%)" offset="0.53125"/><stop stop-opacity="1" stop-color="rgb(25.700378%, 44.95697%, 85.816956%)" offset="0.535156"/><stop stop-opacity="1" stop-color="rgb(25.888062%, 44.723511%, 85.85968%)" offset="0.539062"/><stop stop-opacity="1" stop-color="rgb(26.075745%, 44.490051%, 85.900879%)" offset="0.542969"/><stop stop-opacity="1" stop-color="rgb(26.263428%, 44.258118%, 85.943604%)" offset="0.546875"/><stop stop-opacity="1" stop-color="rgb(26.451111%, 44.024658%, 85.986328%)" offset="0.550781"/><stop stop-opacity="1" stop-color="rgb(26.638794%, 43.791199%, 86.029053%)" offset="0.554688"/><stop stop-opacity="1" stop-color="rgb(26.826477%, 43.557739%, 86.070251%)" offset="0.558594"/><stop stop-opacity="1" stop-color="rgb(27.01416%, 43.325806%, 86.112976%)" offset="0.5625"/><stop stop-opacity="1" stop-color="rgb(27.201843%, 43.092346%, 86.155701%)" offset="0.566406"/><stop stop-opacity="1" stop-color="rgb(27.389526%, 42.858887%, 86.198425%)" offset="0.570312"/><stop stop-opacity="1" stop-color="rgb(27.577209%, 42.625427%, 86.24115%)" offset="0.574219"/><stop stop-opacity="1" stop-color="rgb(27.764893%, 42.391968%, 86.283875%)" offset="0.578125"/><stop stop-opacity="1" stop-color="rgb(27.952576%, 42.158508%, 86.325073%)" offset="0.582031"/><stop stop-opacity="1" stop-color="rgb(28.140259%, 41.926575%, 86.367798%)" offset="0.585938"/><stop stop-opacity="1" stop-color="rgb(28.327942%, 41.693115%, 86.410522%)" offset="0.589844"/><stop stop-opacity="1" stop-color="rgb(28.515625%, 41.459656%, 86.453247%)" offset="0.59375"/><stop stop-opacity="1" stop-color="rgb(28.701782%, 41.226196%, 86.495972%)" offset="0.597656"/><stop stop-opacity="1" stop-color="rgb(28.889465%, 40.994263%, 86.538696%)" offset="0.601562"/><stop stop-opacity="1" stop-color="rgb(29.077148%, 40.760803%, 86.579895%)" offset="0.605469"/><stop stop-opacity="1" stop-color="rgb(29.264832%, 40.527344%, 86.62262%)" offset="0.609375"/><stop stop-opacity="1" stop-color="rgb(29.452515%, 40.293884%, 86.665344%)" offset="0.613281"/><stop stop-opacity="1" stop-color="rgb(29.640198%, 40.060425%, 86.708069%)" offset="0.617187"/><stop stop-opacity="1" stop-color="rgb(29.827881%, 39.826965%, 86.750793%)" offset="0.621094"/><stop stop-opacity="1" stop-color="rgb(30.015564%, 39.595032%, 86.793518%)" offset="0.625"/><stop stop-opacity="1" stop-color="rgb(30.203247%, 39.361572%, 86.834717%)" offset="0.628906"/><stop stop-opacity="1" stop-color="rgb(30.39093%, 39.128113%, 86.877441%)" offset="0.632812"/><stop stop-opacity="1" stop-color="rgb(30.578613%, 38.894653%, 86.920166%)" offset="0.636719"/><stop stop-opacity="1" stop-color="rgb(30.766296%, 38.66272%, 86.962891%)" offset="0.640625"/><stop stop-opacity="1" stop-color="rgb(30.953979%, 38.42926%, 87.005615%)" offset="0.644531"/><stop stop-opacity="1" stop-color="rgb(31.141663%, 38.195801%, 87.04834%)" offset="0.648437"/><stop stop-opacity="1" stop-color="rgb(31.329346%, 37.962341%, 87.089539%)" offset="0.652344"/><stop stop-opacity="1" stop-color="rgb(31.517029%, 37.728882%, 87.132263%)" offset="0.65625"/><stop stop-opacity="1" stop-color="rgb(31.704712%, 37.495422%, 87.174988%)" offset="0.660156"/><stop stop-opacity="1" stop-color="rgb(31.892395%, 37.263489%, 87.217712%)" offset="0.664062"/><stop stop-opacity="1" stop-color="rgb(32.080078%, 37.030029%, 87.260437%)" offset="0.667969"/><stop stop-opacity="1" stop-color="rgb(32.267761%, 36.79657%, 87.303162%)" offset="0.671875"/><stop stop-opacity="1" stop-color="rgb(32.453918%, 36.56311%, 87.34436%)" offset="0.675781"/><stop stop-opacity="1" stop-color="rgb(32.641602%, 36.331177%, 87.387085%)" offset="0.679688"/><stop stop-opacity="1" stop-color="rgb(32.829285%, 36.097717%, 87.42981%)" offset="0.683594"/><stop stop-opacity="1" stop-color="rgb(33.016968%, 35.864258%, 87.472534%)" offset="0.6875"/><stop stop-opacity="1" stop-color="rgb(33.204651%, 35.630798%, 87.515259%)" offset="0.691406"/><stop stop-opacity="1" stop-color="rgb(33.392334%, 35.397339%, 87.557983%)" offset="0.695313"/><stop stop-opacity="1" stop-color="rgb(33.580017%, 35.163879%, 87.599182%)" offset="0.699219"/><stop stop-opacity="1" stop-color="rgb(33.7677%, 34.931946%, 87.641907%)" offset="0.703125"/><stop stop-opacity="1" stop-color="rgb(33.955383%, 34.698486%, 87.684631%)" offset="0.707031"/><stop stop-opacity="1" stop-color="rgb(34.143066%, 34.465027%, 87.727356%)" offset="0.710938"/><stop stop-opacity="1" stop-color="rgb(34.33075%, 34.231567%, 87.770081%)" offset="0.714844"/><stop stop-opacity="1" stop-color="rgb(34.518433%, 33.999634%, 87.812805%)" offset="0.71875"/><stop stop-opacity="1" stop-color="rgb(34.706116%, 33.766174%, 87.854004%)" offset="0.722656"/><stop stop-opacity="1" stop-color="rgb(34.893799%, 33.532715%, 87.896729%)" offset="0.726562"/><stop stop-opacity="1" stop-color="rgb(35.081482%, 33.299255%, 87.939453%)" offset="0.730469"/><stop stop-opacity="1" stop-color="rgb(35.269165%, 33.065796%, 87.982178%)" offset="0.734375"/><stop stop-opacity="1" stop-color="rgb(35.456848%, 32.832336%, 88.024902%)" offset="0.738281"/><stop stop-opacity="1" stop-color="rgb(35.644531%, 32.600403%, 88.067627%)" offset="0.742188"/><stop stop-opacity="1" stop-color="rgb(35.832214%, 32.366943%, 88.108826%)" offset="0.746094"/><stop stop-opacity="1" stop-color="rgb(36.019897%, 32.133484%, 88.15155%)" offset="0.75"/><stop stop-opacity="1" stop-color="rgb(36.206055%, 31.900024%, 88.194275%)" offset="0.753906"/><stop stop-opacity="1" stop-color="rgb(36.393738%, 31.668091%, 88.237%)" offset="0.757812"/><stop stop-opacity="1" stop-color="rgb(36.581421%, 31.434631%, 88.279724%)" offset="0.761719"/><stop stop-opacity="1" stop-color="rgb(36.769104%, 31.201172%, 88.322449%)" offset="0.765625"/><stop stop-opacity="1" stop-color="rgb(36.956787%, 30.967712%, 88.363647%)" offset="0.769531"/><stop stop-opacity="1" stop-color="rgb(37.14447%, 30.734253%, 88.406372%)" offset="0.773437"/><stop stop-opacity="1" stop-color="rgb(37.332153%, 30.500793%, 88.449097%)" offset="0.777344"/><stop stop-opacity="1" stop-color="rgb(37.519836%, 30.26886%, 88.491821%)" offset="0.78125"/><stop stop-opacity="1" stop-color="rgb(37.70752%, 30.0354%, 88.534546%)" offset="0.785156"/><stop stop-opacity="1" stop-color="rgb(37.895203%, 29.801941%, 88.577271%)" offset="0.789062"/><stop stop-opacity="1" stop-color="rgb(38.082886%, 29.568481%, 88.618469%)" offset="0.792969"/><stop stop-opacity="1" stop-color="rgb(38.270569%, 29.336548%, 88.661194%)" offset="0.796875"/><stop stop-opacity="1" stop-color="rgb(38.458252%, 29.103088%, 88.703918%)" offset="0.800781"/><stop stop-opacity="1" stop-color="rgb(38.645935%, 28.869629%, 88.746643%)" offset="0.804687"/><stop stop-opacity="1" stop-color="rgb(38.833618%, 28.636169%, 88.787842%)" offset="0.808594"/><stop stop-opacity="1" stop-color="rgb(39.021301%, 28.40271%, 88.830566%)" offset="0.8125"/><stop stop-opacity="1" stop-color="rgb(39.208984%, 28.16925%, 88.873291%)" offset="0.816406"/><stop stop-opacity="1" stop-color="rgb(39.396667%, 27.937317%, 88.916016%)" offset="0.820312"/><stop stop-opacity="1" stop-color="rgb(39.582825%, 27.703857%, 88.95874%)" offset="0.824219"/><stop stop-opacity="1" stop-color="rgb(39.770508%, 27.470398%, 89.001465%)" offset="0.828125"/><stop stop-opacity="1" stop-color="rgb(39.958191%, 27.236938%, 89.042664%)" offset="0.832031"/><stop stop-opacity="1" stop-color="rgb(40.145874%, 27.005005%, 89.085388%)" offset="0.835937"/><stop stop-opacity="1" stop-color="rgb(40.333557%, 26.771545%, 89.128113%)" offset="0.839844"/><stop stop-opacity="1" stop-color="rgb(40.52124%, 26.538086%, 89.170837%)" offset="0.84375"/><stop stop-opacity="1" stop-color="rgb(40.708923%, 26.304626%, 89.213562%)" offset="0.847656"/><stop stop-opacity="1" stop-color="rgb(40.896606%, 26.071167%, 89.256287%)" offset="0.851562"/><stop stop-opacity="1" stop-color="rgb(41.08429%, 25.837708%, 89.297485%)" offset="0.855469"/><stop stop-opacity="1" stop-color="rgb(41.271973%, 25.605774%, 89.34021%)" offset="0.859375"/><stop stop-opacity="1" stop-color="rgb(41.459656%, 25.372314%, 89.382935%)" offset="0.863281"/><stop stop-opacity="1" stop-color="rgb(41.647339%, 25.138855%, 89.425659%)" offset="0.867187"/><stop stop-opacity="1" stop-color="rgb(41.835022%, 24.905396%, 89.468384%)" offset="0.871094"/><stop stop-opacity="1" stop-color="rgb(42.022705%, 24.673462%, 89.511108%)" offset="0.875"/><stop stop-opacity="1" stop-color="rgb(42.210388%, 24.440002%, 89.552307%)" offset="0.878906"/><stop stop-opacity="1" stop-color="rgb(42.398071%, 24.206543%, 89.595032%)" offset="0.882812"/><stop stop-opacity="1" stop-color="rgb(42.585754%, 23.973083%, 89.637756%)" offset="0.886719"/><stop stop-opacity="1" stop-color="rgb(42.773438%, 23.739624%, 89.680481%)" offset="0.890625"/><stop stop-opacity="1" stop-color="rgb(42.961121%, 23.506165%, 89.723206%)" offset="0.894531"/><stop stop-opacity="1" stop-color="rgb(43.148804%, 23.274231%, 89.76593%)" offset="0.898438"/><stop stop-opacity="1" stop-color="rgb(43.334961%, 23.040771%, 89.807129%)" offset="0.902344"/><stop stop-opacity="1" stop-color="rgb(43.522644%, 22.807312%, 89.849854%)" offset="0.90625"/><stop stop-opacity="1" stop-color="rgb(43.710327%, 22.573853%, 89.892578%)" offset="0.910156"/><stop stop-opacity="1" stop-color="rgb(43.89801%, 22.341919%, 89.935303%)" offset="0.914063"/><stop stop-opacity="1" stop-color="rgb(44.085693%, 22.108459%, 89.978027%)" offset="0.917969"/><stop stop-opacity="1" stop-color="rgb(44.273376%, 21.875%, 90.020752%)" offset="0.921875"/><stop stop-opacity="1" stop-color="rgb(44.46106%, 21.641541%, 90.061951%)" offset="0.925781"/><stop stop-opacity="1" stop-color="rgb(44.648743%, 21.408081%, 90.104675%)" offset="0.929688"/><stop stop-opacity="1" stop-color="rgb(44.836426%, 21.174622%, 90.1474%)" offset="0.933594"/><stop stop-opacity="1" stop-color="rgb(45.024109%, 20.942688%, 90.190125%)" offset="0.9375"/><stop stop-opacity="1" stop-color="rgb(45.211792%, 20.709229%, 90.232849%)" offset="0.941406"/><stop stop-opacity="1" stop-color="rgb(45.399475%, 20.475769%, 90.275574%)" offset="0.945313"/><stop stop-opacity="1" stop-color="rgb(45.587158%, 20.24231%, 90.316772%)" offset="0.949219"/><stop stop-opacity="1" stop-color="rgb(45.774841%, 20.010376%, 90.359497%)" offset="0.953125"/><stop stop-opacity="1" stop-color="rgb(45.962524%, 19.776917%, 90.402222%)" offset="0.957031"/><stop stop-opacity="1" stop-color="rgb(46.150208%, 19.543457%, 90.444946%)" offset="0.960938"/><stop stop-opacity="1" stop-color="rgb(46.337891%, 19.309998%, 90.487671%)" offset="0.964844"/><stop stop-opacity="1" stop-color="rgb(46.525574%, 19.076538%, 90.530396%)" offset="0.96875"/><stop stop-opacity="1" stop-color="rgb(46.713257%, 18.843079%, 90.571594%)" offset="0.972656"/><stop stop-opacity="1" stop-color="rgb(46.90094%, 18.611145%, 90.614319%)" offset="0.976562"/><stop stop-opacity="1" stop-color="rgb(47.087097%, 18.377686%, 90.657043%)" offset="0.980469"/><stop stop-opacity="1" stop-color="rgb(47.27478%, 18.144226%, 90.699768%)" offset="0.984375"/><stop stop-opacity="1" stop-color="rgb(47.462463%, 17.910767%, 90.742493%)" offset="0.988281"/><stop stop-opacity="1" stop-color="rgb(47.650146%, 17.678833%, 90.785217%)" offset="0.992188"/><stop stop-opacity="1" stop-color="rgb(47.83783%, 17.445374%, 90.826416%)" offset="0.996094"/><stop stop-opacity="1" stop-color="rgb(48.025513%, 17.211914%, 90.869141%)" offset="1"/></linearGradient><clipPath id="44ced1e8f7"><path d="M 524 109.648438 L 599 109.648438 L 599 362 L 524 362 Z M 524 109.648438 " clip-rule="nonzero"/></clipPath><clipPath id="acd4baddb6"><path d="M 215 483 L 569 483 L 569 645.898438 L 215 645.898438 Z M 215 483 " clip-rule="nonzero"/></clipPath><clipPath id="4bccfa97fe"><path d="M 389 109.648438 L 456 109.648438 L 456 366 L 389 366 Z M 389 109.648438 " clip-rule="nonzero"/></clipPath></defs><g clip-path="url(#5fcf8aae95)"><g clip-path="url(#bf7f05f8df)"><path fill="url(#9f4ec72745)" d="M 72.855469 72.855469 L 72.855469 751.605469 L 751.605469 751.605469 L 751.605469 72.855469 Z M 72.855469 72.855469 " fill-rule="nonzero"/></g></g><g clip-path="url(#44ced1e8f7)"><path fill="#cccccc" d="M 550.703125 361.507812 L 542.410156 319.199219 L 571.128906 259.574219 L 524.207031 109.648438 L 548.472656 109.648438 L 598.859375 270.707031 Z M 550.703125 361.507812 " fill-opacity="1" fill-rule="nonzero"/></g><path fill="#e9f6ff" d="M 478.527344 311.160156 C 549.835938 263.90625 572.617188 332.3125 550.453125 393.914062 C 540.550781 421.253906 542.902344 417.542969 538.324219 445.253906 C 531.265625 489.167969 505.636719 529.988281 497.589844 450.570312 C 496.476562 439.316406 492.515625 418.53125 478.527344 418.90625 C 464.414062 418.535156 460.574219 439.316406 459.335938 450.570312 C 451.414062 529.988281 425.664062 489.167969 418.605469 445.253906 C 414.148438 417.542969 416.378906 421.253906 406.597656 393.914062 C 384.4375 332.3125 407.214844 263.90625 478.527344 311.160156 Z M 478.527344 311.160156 " fill-opacity="1" fill-rule="nonzero"/><path fill="#cee7f4" d="M 478.527344 311.160156 C 480.382812 309.921875 482.238281 308.808594 484.097656 307.695312 C 490.039062 312.394531 510.464844 330.949219 498.582031 354.824219 C 497.835938 356.433594 495.855469 357.050781 494.371094 356.308594 C 492.886719 355.566406 492.265625 353.589844 493.007812 352.105469 C 504.398438 329.09375 479.019531 311.652344 479.019531 311.53125 C 478.773438 311.40625 478.648438 311.28125 478.527344 311.160156 Z M 478.527344 311.160156 " fill-opacity="1" fill-rule="nonzero"/><path fill="#cee7f4" d="M 472.335938 320.4375 C 473.820312 321.425781 474.316406 323.53125 473.328125 325.015625 C 472.335938 326.5 470.230469 326.867188 468.746094 325.878906 C 463.546875 322.539062 455.746094 317.839844 447.824219 315.242188 C 440.519531 312.769531 432.964844 311.902344 427.519531 315.613281 L 427.394531 315.738281 C 424.425781 317.839844 422.320312 321.054688 420.585938 324.644531 C 418.359375 329.714844 417.121094 335.652344 416.625 340.601562 C 415.757812 348.023438 416.007812 355.816406 417.121094 363.484375 C 418.359375 371.898438 420.464844 380.308594 423.1875 387.980469 L 423.929688 390.082031 C 427.023438 398.492188 430.121094 407.277344 431.976562 416.058594 C 433.09375 421.628906 433.960938 427.316406 434.703125 433.007812 C 435.195312 436.222656 435.566406 439.5625 436.0625 442.535156 C 436.433594 444.265625 435.195312 445.996094 433.339844 446.246094 C 431.605469 446.492188 429.875 445.253906 429.625 443.523438 C 429.128906 440.183594 428.636719 436.964844 428.140625 433.875 C 427.398438 428.308594 426.652344 422.742188 425.539062 417.421875 C 423.808594 409.007812 420.714844 400.472656 417.742188 392.308594 L 417 390.207031 C 414.152344 382.042969 411.921875 373.257812 410.6875 364.351562 C 409.445312 356.1875 409.199219 347.898438 410.066406 339.980469 C 410.6875 334.417969 412.046875 327.734375 414.648438 321.921875 C 416.75 317.34375 419.601562 313.140625 423.5625 310.417969 C 423.683594 310.292969 423.808594 310.292969 423.808594 310.171875 C 431.234375 305.097656 440.769531 305.964844 449.929688 308.933594 C 458.59375 311.902344 466.886719 316.851562 472.335938 320.4375 Z M 472.335938 320.4375 " fill-opacity="1" fill-rule="nonzero"/><g clip-path="url(#acd4baddb6)"><path fill="#e71a5a" d="M 215.324219 483.847656 L 238.226562 483.847656 C 238.96875 486.074219 239.710938 488.425781 240.457031 490.652344 C 249.371094 515.390625 247.386719 511.925781 251.351562 537.164062 C 257.789062 576.871094 281.0625 613.734375 288.242188 541.863281 C 289.355469 531.71875 292.824219 512.917969 305.574219 513.289062 C 318.328125 512.917969 321.792969 531.722656 322.90625 541.863281 C 330.089844 613.734375 353.363281 576.871094 359.800781 537.164062 C 363.761719 511.925781 361.78125 515.390625 370.695312 490.652344 C 371.4375 488.425781 372.179688 486.074219 372.921875 483.847656 L 418.109375 483.847656 C 421.703125 494.980469 421.207031 497.578125 424.300781 516.753906 C 430.738281 556.585938 454.011719 593.449219 461.191406 521.578125 C 462.183594 511.308594 465.773438 492.628906 478.523438 492.878906 C 491.277344 492.632812 494.742188 511.308594 495.855469 521.578125 C 503.039062 593.449219 526.3125 556.585938 532.625 516.753906 C 535.722656 497.578125 535.351562 494.980469 538.9375 483.847656 L 568.652344 483.847656 L 568.652344 645.898438 L 215.324219 645.898438 Z M 215.324219 483.847656 " fill-opacity="1" fill-rule="nonzero"/></g><g clip-path="url(#4bccfa97fe)"><path fill="#cccccc" d="M 437.917969 109.648438 L 416.996094 259.574219 L 455.128906 338.746094 L 439.527344 365.34375 L 389.140625 270.707031 L 413.652344 109.648438 Z M 437.917969 109.648438 " fill-opacity="1" fill-rule="nonzero"/></g><path fill="#e9f6ff" d="M 305.574219 407.769531 C 376.882812 360.394531 399.664062 428.921875 377.503906 490.527344 C 367.722656 517.867188 369.953125 514.03125 365.496094 541.863281 C 358.3125 585.78125 332.6875 626.601562 324.640625 547.058594 C 323.527344 535.804688 319.6875 515.144531 305.574219 515.515625 C 291.460938 515.144531 287.625 535.804688 286.511719 547.058594 C 278.460938 626.601562 252.835938 585.78125 245.65625 541.863281 C 241.199219 514.03125 243.425781 517.867188 233.644531 490.527344 C 211.484375 428.925781 234.265625 360.394531 305.574219 407.769531 Z M 305.574219 407.769531 " fill-opacity="1" fill-rule="nonzero"/><path fill="#cee7f4" d="M 305.574219 407.769531 C 307.554688 406.410156 309.414062 405.296875 311.144531 404.183594 C 317.089844 408.882812 337.515625 427.4375 325.628906 451.4375 C 324.886719 452.921875 323.03125 453.539062 321.421875 452.796875 C 319.933594 452.054688 319.316406 450.199219 320.058594 448.714844 C 331.449219 425.707031 306.070312 408.140625 306.070312 408.140625 C 305.824219 408.019531 305.699219 407.894531 305.574219 407.769531 Z M 305.574219 407.769531 " fill-opacity="1" fill-rule="nonzero"/><path fill="#cee7f4" d="M 299.386719 417.050781 C 300.996094 418.039062 301.367188 420.015625 300.375 421.503906 C 299.386719 423.109375 297.28125 423.480469 295.792969 422.492188 C 290.59375 419.027344 282.917969 414.449219 274.996094 411.730469 C 267.566406 409.253906 260.015625 408.515625 254.566406 412.226562 C 254.566406 412.226562 254.445312 412.226562 254.445312 412.347656 C 251.472656 414.328125 249.371094 417.542969 247.761719 421.132812 C 245.40625 426.328125 244.167969 432.265625 243.675781 437.214844 C 242.808594 444.636719 243.179688 452.304688 244.171875 459.972656 C 245.410156 468.507812 247.511719 476.796875 250.234375 484.46875 L 250.980469 486.570312 C 254.074219 495.105469 257.292969 503.765625 259.027344 512.671875 C 260.140625 518.238281 261.007812 523.929688 261.75 529.496094 C 262.246094 532.835938 262.742188 536.050781 263.113281 539.023438 C 263.484375 540.875 262.246094 542.484375 260.390625 542.855469 C 258.65625 543.101562 256.921875 541.867188 256.675781 540.011719 C 256.179688 536.796875 255.683594 533.578125 255.3125 530.359375 C 254.445312 524.796875 253.703125 519.230469 252.589844 514.03125 C 250.855469 505.621094 247.886719 496.960938 244.914062 488.796875 L 244.171875 486.695312 C 241.199219 478.652344 238.972656 469.871094 237.730469 460.964844 C 236.617188 452.800781 236.246094 444.386719 237.113281 436.472656 C 237.730469 430.90625 239.09375 424.347656 241.691406 418.535156 C 243.796875 413.832031 246.644531 409.75 250.730469 406.90625 L 250.855469 406.78125 C 258.28125 401.710938 267.816406 402.453125 276.976562 405.542969 C 285.640625 408.390625 293.9375 413.335938 299.386719 417.050781 Z M 299.386719 417.050781 " fill-opacity="1" fill-rule="nonzero"/></svg>